<svg xmlns="http://www.w3.org/2000/svg" width="570.873" height="204.326" viewBox="0 0 570.873 204.326">
  <g id="ico_objectd_not-allowes" transform="translate(-518.069 -617.775)">
    <g id="Group_40" data-name="Group 40" transform="translate(662.507 696.16)">
      <text id="GASES" transform="translate(13.617 9)" fill="#717070" font-size="9" font-family="Source Sans Pro" font-weight="600"><tspan x="0" y="0">GASES</tspan></text>
      <text id="INFLAMABLES" transform="translate(0 17.289)" fill="#717070" font-size="9" font-family="Source Sans Pro" font-weight="600"><tspan x="0" y="0">INFLAMABLES</tspan></text>
    </g>
    <g id="Group_41" data-name="Group 41" transform="translate(602.292 622.972)">
      <g id="Group_88" data-name="Group 88" transform="translate(0 0)">
        <path id="Path_27" data-name="Path 27" d="M1494.27,179.536c-.131.329-.263.526-.329.724a2.2,2.2,0,0,0,0,.658,1.339,1.339,0,0,0,.855,1.447,21.173,21.173,0,0,1,5.986,4.8,15.812,15.812,0,0,1,3.618,7.17,16.25,16.25,0,0,1,.329,2.5,1.7,1.7,0,0,0,.46,1.053,2.646,2.646,0,0,1,.066,3.618,1.694,1.694,0,0,0-.46,1.053v10.986a1.4,1.4,0,0,0,.46,1.053,2.7,2.7,0,0,1,.066,3.552,1.715,1.715,0,0,0-.46,1.316v13.288a2.049,2.049,0,0,0,.592,1.71,1.309,1.309,0,0,1,.46,1.053,10.676,10.676,0,0,1-.066,1.447,1.272,1.272,0,0,1-1.25,1.053h-28.813a1.094,1.094,0,0,1-1.25-1.053,2.686,2.686,0,0,1,.592-2.763,1.256,1.256,0,0,0,.395-1.053V219.2a1.011,1.011,0,0,0-.395-.921c-.855-.789-.724-1.776-.592-2.763a1.567,1.567,0,0,1,.395-.724,1.917,1.917,0,0,0,.592-1.645V203.086a2.178,2.178,0,0,0-.592-1.842,1.443,1.443,0,0,1-.46-1.118,7.959,7.959,0,0,1,.066-1.25,1.567,1.567,0,0,1,.395-.724,2.04,2.04,0,0,0,.658-1.579,16.434,16.434,0,0,1,4.276-9.8,23.785,23.785,0,0,1,5.328-4.276c1.184-.724,1.118-.46,1.118-2.105a1.92,1.92,0,0,0-.131-.592.318.318,0,0,1,.066-.46.537.537,0,0,0-.066-.789,2.133,2.133,0,0,1-.658-2.039v-.724c.066-.526.2-.658.724-.789a10.919,10.919,0,0,1,1.447-.2h5.065a5.477,5.477,0,0,1,1.447.2c.526.132.658.263.724.789v1.053a2.166,2.166,0,0,1-.526,1.645C1493.809,178.879,1493.875,179.01,1494.27,179.536Zm7.565,35.72v-8.815a4.646,4.646,0,0,0-1.71-3.618,7.24,7.24,0,0,0-2.3-1.316,11.272,11.272,0,0,0-3.618-.592h-7.5a19.51,19.51,0,0,0-2.763.2,7.747,7.747,0,0,0-3.487,1.447,4.587,4.587,0,0,0-2.039,4.079v17.169a4.813,4.813,0,0,0,2.171,4.144,8.153,8.153,0,0,0,4.539,1.513q5.032.1,10.065,0a8.29,8.29,0,0,0,4.407-1.381,4.927,4.927,0,0,0,2.3-4.276C1501.835,220.914,1501.835,218.085,1501.835,215.256Z" transform="translate(-1474.41 -174.8)" fill="#717070"/>
        <path id="Path_28" data-name="Path 28" d="M1490.729,273.232h13.88a.4.4,0,0,1,.395.592,3.459,3.459,0,0,1-1.184,1.842,5.191,5.191,0,0,1-1.513.921,10.9,10.9,0,0,1-3.815.724H1482.7a9.67,9.67,0,0,1-3.815-.789,4.3,4.3,0,0,1-2.566-2.566c-.066-.132-.066-.2-.132-.329-.066-.2.066-.46.263-.46a5.66,5.66,0,0,1,1.052-.066C1481.98,273.232,1486.322,273.232,1490.729,273.232Z" transform="translate(-1475.013 -208.436)" fill="#717070"/>
      </g>
      <g id="Group_89" data-name="Group 89" transform="translate(6.654 31.837)">
        <path id="Path_29" data-name="Path 29" d="M1489.705,227.049a3.533,3.533,0,0,1,3.486-3.75,4.659,4.659,0,0,0-3.815,2.105,4.97,4.97,0,0,0-.526,4.671h0a5.1,5.1,0,0,0-3.815,2.763,4.525,4.525,0,0,0,.066,4.342,3.614,3.614,0,0,1,1.579-4.934,3.773,3.773,0,0,1,5.065,1.25l.066-.066.658-.395a1.187,1.187,0,0,1,.855-1.447V230.8A3.765,3.765,0,0,1,1489.705,227.049Z" transform="translate(-1484.525 -223.232)" fill="#717070"/>
        <path id="Path_30" data-name="Path 30" d="M1502.118,227.015a3.591,3.591,0,0,0-3.486-3.815,4.659,4.659,0,0,1,3.815,2.105,5.193,5.193,0,0,1,.526,4.671h0a4.9,4.9,0,0,1,3.75,2.763,4.746,4.746,0,0,1-.066,4.342,3.59,3.59,0,0,0-1.513-4.934,3.773,3.773,0,0,0-5.065,1.25l-.066-.066-.658-.395a1.187,1.187,0,0,0-.855-1.447V230.7A3.664,3.664,0,0,0,1502.118,227.015Z" transform="translate(-1489.307 -223.198)" fill="#717070"/>
        <path id="Path_31" data-name="Path 31" d="M1497.052,244.16a3.62,3.62,0,0,0,5.065-1.118,4.67,4.67,0,0,1-3.75,2.237,5.272,5.272,0,0,1-4.342-1.908h0a5.091,5.091,0,0,1-4.342,1.842,4.468,4.468,0,0,1-3.684-2.3,3.561,3.561,0,0,0,5,1.184,3.845,3.845,0,0,0,1.513-5h.066l.658-.395s.921.855,1.645,0l.724.395A3.836,3.836,0,0,0,1497.052,244.16Z" transform="translate(-1485.03 -228.502)" fill="#717070"/>
        <path id="Path_32" data-name="Path 32" d="M1493.9,231.329a3.341,3.341,0,0,0,.789.855,3.7,3.7,0,0,1,3.947,0,2.391,2.391,0,0,0,.789-.855A4.729,4.729,0,0,0,1493.9,231.329Z" transform="translate(-1487.733 -225.67)" fill="#717070"/>
        <path id="Path_33" data-name="Path 33" d="M1490.984,236.9a2.931,2.931,0,0,1,1.184.263,3.676,3.676,0,0,0,1.974,3.421,3.086,3.086,0,0,1-.329,1.118A4.617,4.617,0,0,1,1490.984,236.9Z" transform="translate(-1486.725 -227.886)" fill="#717070"/>
        <path id="Path_34" data-name="Path 34" d="M1503.758,236.9a2.932,2.932,0,0,0-1.184.263,3.675,3.675,0,0,1-1.974,3.421,3.083,3.083,0,0,0,.329,1.118A4.73,4.73,0,0,0,1503.758,236.9Z" transform="translate(-1490.026 -227.886)" fill="#717070"/>
      </g>
    </g>
    <g id="Group_42" data-name="Group 42" transform="translate(592.021 694.16)">
      <text id="SUBSTANCIAS" transform="translate(0 9)" fill="#717070" font-size="9" font-family="Source Sans Pro" font-weight="600"><tspan x="0" y="0">SUBSTANCIAS</tspan></text>
      <text id="INFECCIOSAS" transform="translate(1.513 17.289)" fill="#717070" font-size="9" font-family="Source Sans Pro" font-weight="600"><tspan x="0" y="0">INFECCIOSAS</tspan></text>
    </g>
    <g id="Group_44" data-name="Group 44" transform="translate(735 693.84)">
      <text id="MATERIAL" transform="translate(6.776 9)" fill="#717070" font-size="9" font-family="Source Sans Pro" font-weight="600"><tspan x="0" y="0">MATERIAL</tspan></text>
      <text id="RADIOACTIVO" transform="translate(0 17.289)" fill="#717070" font-size="9" font-family="Source Sans Pro" font-weight="600"><tspan x="0" y="0">RADIOACTIVO</tspan></text>
    </g>
    <g id="Group_46" data-name="Group 46" transform="translate(815 694.16)">
      <text id="EXPLOSIVOS" transform="translate(0.855 9)" fill="#717070" font-size="9" font-family="Source Sans Pro" font-weight="600"><tspan x="0" y="0">EXPLOSIVOS</tspan></text>
      <text id="MUNICIONES" transform="translate(0 17.289)" fill="#717070" font-size="9" font-family="Source Sans Pro" font-weight="600"><tspan x="0" y="0">MUNICIONES</tspan></text>
    </g>
    <g id="Group_50" data-name="Group 50" transform="translate(887 694.049)">
      <text id="ENCENDEDORES" transform="translate(0 9)" fill="#717070" font-size="9" font-family="Source Sans Pro" font-weight="600"><tspan x="0" y="0">ENCENDEDORES</tspan></text>
      <text id="CERILLOS" transform="translate(12.63 17.289)" fill="#717070" font-size="9" font-family="Source Sans Pro" font-weight="600"><tspan x="0" y="0">CERILLOS</tspan></text>
    </g>
    <g id="Group_136" data-name="Group 136" transform="translate(103 -158)">
      <g id="Group_37" data-name="Group 37" transform="translate(432.464 781.117)">
        <path id="Path_13" data-name="Path 13" d="M1379.158,178.631h3.486a.659.659,0,0,0,.658-.658v-3.815a.659.659,0,0,0-.658-.658h-3.486a.659.659,0,0,0-.658.658v3.815A.622.622,0,0,0,1379.158,178.631Z" transform="translate(-1373.764 -173.5)" fill="#717070"/>
        <path id="Path_14" data-name="Path 14" d="M1373.8,265.3a12.512,12.512,0,0,0,22.629,0H1373.8Z" transform="translate(-1372.156 -204.912)" fill="#717070"/>
        <path id="Path_15" data-name="Path 15" d="M1396.461,187.738a13.087,13.087,0,0,0-9.473-7.17v-2.631h1.513l3.684.724a.524.524,0,0,0,.658-.526v-4.013a.53.53,0,0,0-.658-.526l-3.684.592h-6.249v3.684h.855V180.5a12.936,12.936,0,0,0-9.407,7.1h22.761ZM1383.9,176.555a1.118,1.118,0,1,1,1.118,1.118A1.153,1.153,0,0,1,1383.9,176.555Z" transform="translate(-1372.121 -173.529)" fill="#717070"/>
        <path id="Path_16" data-name="Path 16" d="M1391.279,232.947a2.067,2.067,0,0,0-1.381,1.381,2.742,2.742,0,0,0-1.645-2.829c1.579,1.908-1.052,3.947-1.052,6.907a2.434,2.434,0,1,0,4.868,0C1392.134,236.1,1389.9,234.46,1391.279,232.947Z" transform="translate(-1376.741 -193.346)" fill="#717070"/>
        <path id="Path_17" data-name="Path 17" d="M1396.363,197.9h-24.274a14.7,14.7,0,0,0-.789,4.8v32.76a13.909,13.909,0,0,0,.855,4.934h24.208a15.55,15.55,0,0,0,.855-4.934V202.7A17.152,17.152,0,0,0,1396.363,197.9Zm-12.1,33.154a6.6,6.6,0,0,1-6.578-6.578c0-6.315,5.986-10.723,2.237-14.8a5.274,5.274,0,0,1,3.75,3.684c.066-3.289.987-6.447,4.407-7.7-4.276,5.2,2.829,10.723,2.829,18.748A6.711,6.711,0,0,1,1384.259,231.054Z" transform="translate(-1371.3 -181.849)" fill="#717070"/>
      </g>
      <g id="Group_38" data-name="Group 38" transform="translate(420.455 853.596)">
        <text id="GAS" transform="translate(17.498 9)" fill="#717070" font-size="9" font-family="Source Sans Pro" font-weight="600"><tspan x="0" y="0">GAS</tspan></text>
        <text id="COMPRIMIDO" transform="translate(0 17.289)" fill="#717070" font-size="9" font-family="Source Sans Pro" font-weight="600"><tspan x="0" y="0">COMPRIMIDO</tspan></text>
      </g>
      <path id="Path_41" data-name="Path 41" d="M1377.621,191.9a25.721,25.721,0,1,0,25.721,25.721A25.758,25.758,0,0,0,1377.621,191.9Zm23.155,25.721a23.183,23.183,0,0,1-6.183,15.722c-10.657-10.854-27.431-27.892-32.3-33.089a23.164,23.164,0,0,1,38.483,17.367Zm-46.311,0a23.173,23.173,0,0,1,5.92-15.459c1.052,1.184,2.895,3.158,5.986,6.315,2.631,2.7,6.249,6.447,10.854,11.117,5.92,6.052,12.564,12.762,15.393,15.656a23.2,23.2,0,0,1-38.154-17.63Z" transform="translate(-932.198 601.321)" fill="#df040b" stroke="#e87175" stroke-width="5"/>
    </g>
    <g id="Group_137" data-name="Group 137" transform="translate(101.523 -159)">
      <g id="Group_39" data-name="Group 39" transform="translate(568.238 776.775)">
        <path id="Path_19" data-name="Path 19" d="M1589.107,235.581h2.368v2.237a4.659,4.659,0,0,1-1.71.329,2.023,2.023,0,0,1-1.776-.921,3.672,3.672,0,0,1-.789-2.368,4.443,4.443,0,0,1,.592-2.3,2.306,2.306,0,0,1,2.1-1.25,4.591,4.591,0,0,1,2.368.789l.395.263,1.052-1.908-.329-.263a5.141,5.141,0,0,0-1.776-.724,6.971,6.971,0,0,0-1.908-.263,4.458,4.458,0,0,0-3.815,1.973,5.962,5.962,0,0,0-1.184,3.618,6.12,6.12,0,0,0,1.25,3.75,4.569,4.569,0,0,0,3.815,1.71,6.394,6.394,0,0,0,2.039-.263,7.787,7.787,0,0,0,1.776-.789l.263-.132v-5.526h-4.8v2.039Z" transform="translate(-1580.095 -188.218)" fill="#717070"/>
        <path id="Path_20" data-name="Path 20" d="M1601.992,196.8a1.06,1.06,0,0,1-.592-.2.8.8,0,0,0,.592.2Z" transform="translate(-1585.81 -177.063)" fill="#717070"/>
        <path id="Path_21" data-name="Path 21" d="M1600.6,194.273a1.056,1.056,0,0,0,.329.724,1.057,1.057,0,0,1-.329-.724v-1.316a.844.844,0,0,1,.263-.658,1.169,1.169,0,0,0-.263.658Z" transform="translate(-1585.536 -175.591)" fill="#717070"/>
        <path id="Path_22" data-name="Path 22" d="M1619,185.9Z" transform="translate(-1591.832 -173.401)" fill="#717070"/>
        <path id="Path_23" data-name="Path 23" d="M1605.5,237.331h1.776l-.921-2.631Z" transform="translate(-1587.213 -190.099)" fill="#717070"/>
        <rect id="Rectangle_44" data-name="Rectangle 44" height="1.25" transform="translate(27.102 23.419)" fill="#717070"/>
        <path id="Path_24" data-name="Path 24" d="M1609.013,197.625h-.724V185.587a51.569,51.569,0,0,0-4.407,3.486v4.934h-5.394a2.861,2.861,0,0,1-.46.395c-.066-.066-.2-.132-.263-.263v-1.513h.46a1.039,1.039,0,0,0,1.052-1.053v-1.316a1.039,1.039,0,0,0-1.052-1.053h-4.6a.958.958,0,0,0-.592.395,1.169,1.169,0,0,0-.263.658v1.316a1.056,1.056,0,0,0,.329.724c.066.066.131.066.131.132a1.061,1.061,0,0,0,.592.2h.46v1.381h-6.447v-5.46h5.986c.263-.724.592-1.513.855-2.368h-7.5v-.526a1.039,1.039,0,0,0-1.052-1.053H1584.8a1.039,1.039,0,0,0-1.052,1.053v11.907h-.724a5.335,5.335,0,0,0-5.328,5.263v35.457a5.282,5.282,0,0,0,4.144,5.131v3.881h28.286V243.41a5.282,5.282,0,0,0,4.144-5.131V202.822A5.265,5.265,0,0,0,1609.013,197.625Zm-11.249-1.25h7.039v1.25h-7.039Zm-10.525,0h7.039v1.25h-7.039Zm4.276,27.431-.263.132a7.79,7.79,0,0,1-1.776.789,6.66,6.66,0,0,1-2.039.263,4.758,4.758,0,0,1-3.815-1.71,5.5,5.5,0,0,1-1.25-3.75,5.825,5.825,0,0,1,1.184-3.618,4.457,4.457,0,0,1,3.815-1.973,6.972,6.972,0,0,1,1.908.263,5.142,5.142,0,0,1,1.776.724l.329.263-1.052,1.908-.395-.263a4.591,4.591,0,0,0-2.368-.789,2.307,2.307,0,0,0-2.105,1.25,4.617,4.617,0,0,0-.592,2.3,3.673,3.673,0,0,0,.789,2.368,2.184,2.184,0,0,0,1.776.921,4.659,4.659,0,0,0,1.71-.329V220.32h-2.368v-2.039h4.8v5.526Zm7.894,1.316-.987-2.894h-3.092l-.987,2.894-2.368-.263,3.881-10.788h1.973l3.947,10.723Zm9.012-.855a4.374,4.374,0,0,1-2.7.789,5.7,5.7,0,0,1-2.1-.395,3.92,3.92,0,0,1-1.579-1.053l-.263-.263,1.381-1.71.395.395a2.8,2.8,0,0,0,2.237.921,2.1,2.1,0,0,0,1.184-.329,1.154,1.154,0,0,0,.395-.987c0-.263-.132-.724-1.053-1.118l-.658-.263c-.592-.2-1.184-.46-1.776-.658h-.066a2.99,2.99,0,0,1-.395-4.934,4.293,4.293,0,0,1,2.566-.855,5.242,5.242,0,0,1,3.092.987l.395.263-1.25,1.71-.395-.329a2.941,2.941,0,0,0-1.842-.592c-1.118,0-1.25.526-1.25,1.053s.789.855,1.447,1.053a9.3,9.3,0,0,1,2.565,1.053,3.073,3.073,0,0,1,1.053,2.5A3.358,3.358,0,0,1,1608.421,224.267Z" transform="translate(-1577.7 -172.956)" fill="#717070"/>
        <rect id="Rectangle_45" data-name="Rectangle 45" height="5.46" transform="translate(10.196 15.59)" fill="#717070"/>
        <path id="Path_25" data-name="Path 25" d="M1608.121,177.031c.066,1.053.131,2.039.2,3.026a46.625,46.625,0,0,1,10.262-9.012,41.746,41.746,0,0,0-8.025,10.065c.921-.329,1.842-.724,2.763-1.053-1.447,1.381-2.631,2.763-3.881,4.144v.921a81.472,81.472,0,0,1,6.776-6.512c-1.381.395-2.7.789-4.013,1.25a34.967,34.967,0,0,1,13.946-12.959c-8.618,2.7-13.617,7.762-17.235,11.446q-.2-2.072-.395-4.342a70.23,70.23,0,0,0-3.815,8.091h.789C1606.279,180.517,1607.068,178.872,1608.121,177.031Z" transform="translate(-1586.939 -166.9)" fill="#717070"/>
      </g>
      <path id="Path_42" data-name="Path 42" d="M1591.621,194.4a25.721,25.721,0,1,0,25.721,25.721A25.758,25.758,0,0,0,1591.621,194.4Zm23.155,25.721a23.182,23.182,0,0,1-6.184,15.722c-10.657-10.854-27.431-27.892-32.3-33.089a23.164,23.164,0,0,1,38.483,17.367Zm-46.311,0a23.172,23.172,0,0,1,5.92-15.459c1.052,1.184,2.895,3.158,5.986,6.315,2.631,2.7,6.249,6.447,10.854,11.117,5.92,6.052,12.564,12.762,15.393,15.656a23.2,23.2,0,0,1-38.154-17.63Z" transform="translate(-1005.423 600.466)" fill="#df040b" stroke="#e87175" stroke-width="5"/>
    </g>
    <path id="Path_43" data-name="Path 43" d="M1484.921,194.3a25.721,25.721,0,1,0,25.721,25.721A25.758,25.758,0,0,0,1484.921,194.3Zm23.155,25.787a23.182,23.182,0,0,1-6.183,15.722c-10.657-10.854-27.431-27.892-32.3-33.089a23.164,23.164,0,0,1,38.483,17.367Zm-46.311,0a23.172,23.172,0,0,1,5.92-15.459c1.052,1.184,2.894,3.158,5.986,6.315,2.631,2.7,6.249,6.447,10.854,11.117,5.921,6.052,12.564,12.762,15.393,15.656a23.2,23.2,0,0,1-38.154-17.63Z" transform="translate(-866.914 441.5)" fill="#df040b" stroke="#e87175" stroke-width="5"/>
    <g id="Group_138" data-name="Group 138" transform="translate(103.883 -159)">
      <g id="Group_43" data-name="Group 43" transform="translate(628.117 793.463)">
        <path id="Path_36" data-name="Path 36" d="M1668.775,233.6c-.987,17.235,13.222,25.326,13.222,25.326l10.788-16.906a7.994,7.994,0,0,1-3.881-7.5Z" transform="translate(-1668.725 -206.41)" fill="#717070"/>
        <path id="Path_37" data-name="Path 37" d="M1727.31,261.3c15.393-7.762,15.327-24.142,15.327-24.142l-20-.855a8,8,0,0,1-4.539,7.1Z" transform="translate(-1685.62 -207.334)" fill="#717070"/>
        <path id="Path_38" data-name="Path 38" d="M1720.85,196.828c-14.406-9.473-28.55-1.25-28.55-1.25l9.275,17.761a7.9,7.9,0,0,1,8.42.395Z" transform="translate(-1676.792 -192.267)" fill="#717070"/>
        <circle id="Ellipse_26" data-name="Ellipse 26" cx="6.118" cy="6.118" r="6.118" transform="translate(20.155 30.479) rotate(-57.472)" fill="#717070"/>
      </g>
      <path id="Path_44" data-name="Path 44" d="M1698.721,194.6a25.721,25.721,0,1,0,25.721,25.721A25.758,25.758,0,0,0,1698.721,194.6Zm23.156,25.721a23.182,23.182,0,0,1-6.184,15.722c-10.657-10.854-27.431-27.892-32.3-33.089a23.164,23.164,0,0,1,38.483,17.367Zm-46.311,0a23.173,23.173,0,0,1,5.92-15.459c1.052,1.184,2.895,3.158,5.986,6.315,2.631,2.7,6.249,6.447,10.854,11.117,5.92,6.052,12.564,12.762,15.393,15.656a23.2,23.2,0,0,1-38.154-17.63Z" transform="translate(-1042.07 600.397)" fill="#df040b" stroke="#e87175" stroke-width="5"/>
    </g>
    <g id="Group_139" data-name="Group 139" transform="translate(113.091 -159)">
      <g id="Group_45" data-name="Group 45" transform="translate(702.172 784.275)">
        <g id="Group_92" data-name="Group 92" transform="translate(13.749 11.051)">
          <path id="Path_40" data-name="Path 40" d="M1825.948,223.486v-2.7a.8.8,0,0,0-.789-.789h-11.052a.8.8,0,0,0-.789.789v2.7a17.432,17.432,0,1,0,12.63,0Z" transform="translate(-1802.2 -203.62)" fill="#717070"/>
          <path id="Path_41-2" data-name="Path 41" d="M1829.621,209.354c.855-1.184,2.434-1.776,4.6-1.776,3.947,0,6.512-.921,7.565-2.7a4.062,4.062,0,0,0,.132-3.881l-.2.658-.789.066-.395.46-.723-.2a1.956,1.956,0,0,1-.066,1.645c-.395.592-1.579,1.579-5.657,1.579-2.96,0-5.131.921-6.512,2.7a7.81,7.81,0,0,0-1.381,4.8h2.3A7.807,7.807,0,0,1,1829.621,209.354Z" transform="translate(-1810.412 -197.119)" fill="#717070"/>
          <rect id="Rectangle_46" data-name="Rectangle 46" width="1.118" height="2.894" transform="translate(32.409 7.493) rotate(-45)" fill="#717070"/>
          <rect id="Rectangle_47" data-name="Rectangle 47" width="1.118" height="2.894" transform="translate(26.884 1.965) rotate(-45)" fill="#717070"/>
          <rect id="Rectangle_48" data-name="Rectangle 48" width="2.894" height="1.118" transform="translate(33.549 4.802)" fill="#717070"/>
          <rect id="Rectangle_49" data-name="Rectangle 49" width="2.894" height="1.118" transform="translate(25.787 4.802)" fill="#717070"/>
          <rect id="Rectangle_50" data-name="Rectangle 50" width="2.894" height="1.118" transform="translate(32.466 3.234) rotate(-45)" fill="#717070"/>
          <rect id="Rectangle_51" data-name="Rectangle 51" width="1.118" height="2.894" transform="translate(30.523)" fill="#717070"/>
        </g>
        <g id="Group_93" data-name="Group 93" transform="translate(0)">
          <path id="Path_42-2" data-name="Path 42" d="M1803.206,188.689l-.658-.263-.2.658-.789-.132h0a2.378,2.378,0,0,1-.066,2.171c-1.052,1.71-4.671,1.908-6.776,1.908-3.421,0-5.855,1.053-7.368,3.092a8.372,8.372,0,0,0-1.579,4.8h-3.223a1.294,1.294,0,0,0-1.25,1.25v42.1a1.294,1.294,0,0,0,1.25,1.25h8.683a1.294,1.294,0,0,0,1.25-1.25v-42.1a1.294,1.294,0,0,0-1.25-1.25h-3.223a6.1,6.1,0,0,1,1.118-3.486c1.052-1.447,2.96-2.171,5.591-2.171,4.539,0,7.433-.987,8.683-3.026a4.7,4.7,0,0,0,.132-4.342Z" transform="translate(-1781.3 -181.585)" fill="#717070"/>
          <rect id="Rectangle_52" data-name="Rectangle 52" width="1.184" height="5.526" transform="translate(22.846 10.709) rotate(-45)" fill="#717070"/>
          <rect id="Rectangle_53" data-name="Rectangle 53" width="1.184" height="5.526" transform="translate(14.987 2.889) rotate(-45)" fill="#717070"/>
          <rect id="Rectangle_54" data-name="Rectangle 54" width="5.526" height="1.184" transform="translate(24.076 7.762)" fill="#717070"/>
          <rect id="Rectangle_55" data-name="Rectangle 55" width="5.526" height="1.184" transform="translate(12.959 7.762)" fill="#717070"/>
          <rect id="Rectangle_56" data-name="Rectangle 56" width="5.526" height="1.184" transform="translate(22.863 5.927) rotate(-45)" fill="#717070"/>
          <rect id="Rectangle_57" data-name="Rectangle 57" width="1.184" height="5.526" transform="translate(20.722)" fill="#717070"/>
        </g>
      </g>
      <path id="Path_45" data-name="Path 45" d="M1806.621,195.5a25.721,25.721,0,1,0,25.721,25.721A25.758,25.758,0,0,0,1806.621,195.5Zm23.155,25.787a23.182,23.182,0,0,1-6.184,15.722c-10.657-10.854-27.431-27.892-32.3-33.089a23.164,23.164,0,0,1,38.483,17.367Zm-46.311,0a23.172,23.172,0,0,1,5.92-15.459c1.052,1.184,2.895,3.158,5.986,6.315,2.631,2.7,6.249,6.447,10.854,11.117,5.92,6.052,12.564,12.762,15.393,15.656a23.2,23.2,0,0,1-38.154-17.63Z" transform="translate(-1078.991 600.089)" fill="#df040b" stroke="#e87175" stroke-width="5"/>
    </g>
    <g id="Group_140" data-name="Group 140" transform="translate(119.107 -159)">
      <g id="Group_47" data-name="Group 47" transform="translate(767.893 795.649)">
        <path id="Path_44-2" data-name="Path 44" d="M1398.295,383.5h-21.971a.73.73,0,0,0-.724.724V403.1a1.909,1.909,0,0,0,1.908,1.908h19.669a1.909,1.909,0,0,0,1.908-1.908v-18.88A.841.841,0,0,0,1398.295,383.5Z" transform="translate(-1350.344 -357.905)" fill="#717070"/>
        <path id="Path_45-2" data-name="Path 45" d="M1361.213,371.8l-15.525-15.525a.719.719,0,0,0-.987-.066l-6.907,6.907a2.458,2.458,0,0,0-.263,2.829,40.432,40.432,0,0,0,13.946,13.946,2.458,2.458,0,0,0,2.829-.263l6.907-6.907A.635.635,0,0,0,1361.213,371.8Z" transform="translate(-1337.206 -348.511)" fill="#717070"/>
        <path id="Path_46" data-name="Path 46" d="M1377.629,382.2a.329.329,0,1,0,0,.658h20.59a.329.329,0,0,0,0-.658Z" transform="translate(-1350.925 -357.46)" fill="#717070"/>
        <circle id="Ellipse_27" data-name="Ellipse 27" cx="0.921" cy="0.921" r="0.921" transform="translate(23.743 24.213)" fill="#717070"/>
        <path id="Path_47" data-name="Path 47" d="M1387.024,369.9h8.749a.639.639,0,0,1,.724.658v.066a.724.724,0,0,0,.395.658l.132.066,1.974,1.184a2.043,2.043,0,0,1,.987,1.316,2.848,2.848,0,0,0,.066.329,1.119,1.119,0,0,0-.066-.461A2.434,2.434,0,0,0,1399,372.4l-2.105-1.25a.872.872,0,0,1-.395-.658v-.066a.73.73,0,0,0-.724-.724h-8.749a.73.73,0,0,0-.724.724v.132A.676.676,0,0,1,1387.024,369.9Z" transform="translate(-1354.005 -353.183)" fill="#717070"/>
        <path id="Path_48" data-name="Path 48" d="M1380.681,374.179a.985.985,0,0,0-1.184.526,1.822,1.822,0,0,0-.2.855,1.326,1.326,0,0,1,.2-.724,1.05,1.05,0,0,1,.921-.526.4.4,0,0,1,.263.066,1.463,1.463,0,0,1,.855.526.908.908,0,0,1,.2.263l.2.329a2.079,2.079,0,0,0,.921.921.834.834,0,0,0,.395.066.679.679,0,0,0,.724-.724v-.132a.746.746,0,0,1-.2.526.707.707,0,0,1-.921.132h0a2.079,2.079,0,0,1-.921-.921l-.2-.329A1.685,1.685,0,0,0,1380.681,374.179Z" transform="translate(-1351.61 -354.702)" fill="#717070"/>
        <path id="Path_49" data-name="Path 49" d="M1393.443,379.721h-11.972a1.061,1.061,0,0,1-.855-.395l-.066-.066a1.376,1.376,0,0,1-.263-.395l-.855-2.039a1.548,1.548,0,0,1-.132-.526,1.119,1.119,0,0,0,.066.461.242.242,0,0,0,.066.2l.855,2.039a1.373,1.373,0,0,0,.263.395l.066.132a1.061,1.061,0,0,0,.855.395h11.972a.856.856,0,0,0,.724-.855v-.132A.747.747,0,0,1,1393.443,379.721Z" transform="translate(-1351.61 -355.441)" fill="#717070"/>
        <path id="Path_50" data-name="Path 50" d="M1404.729,377.618l-.066.066a3.968,3.968,0,0,1-1.25.395l-.789.066a.73.73,0,0,0-.724.724V379a.69.69,0,0,1,.329-.592.935.935,0,0,1,.395-.132l.789-.066a2.166,2.166,0,0,0,1.25-.395l.066-.066a1.32,1.32,0,0,0,.658-1.184V376.5A1.357,1.357,0,0,1,1404.729,377.618Z" transform="translate(-1359.343 -355.51)" fill="#717070"/>
        <path id="Path_51" data-name="Path 51" d="M1383.673,374.868a.747.747,0,0,1-.526.2.834.834,0,0,1-.395-.066,2.078,2.078,0,0,1-.921-.921l-.2-.329c-.066-.066-.131-.2-.2-.263a1.462,1.462,0,0,0-.855-.526c-.066,0-.2-.066-.263-.066a1.05,1.05,0,0,0-.921.526,1.327,1.327,0,0,0-.2.724,1.239,1.239,0,0,0,.132.526l.855,2.039a1.377,1.377,0,0,0,.263.395l.066.066a1.061,1.061,0,0,0,.855.395h11.972a.73.73,0,0,0,.724-.724v-.263a.73.73,0,0,1,.724-.724l.789-.066a2.166,2.166,0,0,0,1.25-.395l.066-.066a1.357,1.357,0,0,0,.658-1.118.493.493,0,0,0-.066-.329,2.433,2.433,0,0,0-.987-1.316l-1.974-1.184-.131-.066a.872.872,0,0,1-.395-.658h0a.676.676,0,0,0-.724-.658h-8.749a.639.639,0,0,0-.724.658v3.684A.545.545,0,0,1,1383.673,374.868Zm-3.158-.395a.526.526,0,1,1,.526-.526C1380.976,374.276,1380.779,374.473,1380.516,374.473Zm16.117-.987a.526.526,0,1,1-.526.526A.484.484,0,0,1,1396.632,373.486Zm-3.947,3.026a.526.526,0,1,1-.526-.526A.484.484,0,0,1,1392.685,376.512Zm-.658-5.986a.526.526,0,1,1-.526.526A.519.519,0,0,1,1392.027,370.526Zm-1.25,2.5a.526.526,0,1,1-.526.526A.519.519,0,0,1,1390.778,373.026Zm-1.184,3.486a.526.526,0,1,1-.526-.526A.519.519,0,0,1,1389.594,376.512Zm-.724-5.986a.526.526,0,1,1-.526.526A.566.566,0,0,1,1388.87,370.526Zm-1.908,2.5a.526.526,0,1,1-.526.526C1386.5,373.289,1386.7,373.026,1386.962,373.026Zm-.921,3.486a.519.519,0,0,1-.526.526.484.484,0,0,1-.526-.526.519.519,0,0,1,.526-.526A.484.484,0,0,1,1386.041,376.512Zm-.724-5.986a.526.526,0,0,1,0,1.053.484.484,0,0,1-.526-.526A.566.566,0,0,1,1385.318,370.526Z" transform="translate(-1351.575 -353.286)" fill="#717070"/>
        <path id="Path_52" data-name="Path 52" d="M1404.172,372.058a5.934,5.934,0,0,1,1.316.921,1.979,1.979,0,0,1,.526,1.447,1.917,1.917,0,0,1-1.118,1.513,4.35,4.35,0,0,1-2.039.395c-.131,0-.329,0-.263.132.2.395,1.184.592,2.039.592a3.321,3.321,0,0,0,3.289-3.684,3.283,3.283,0,0,0-2.829-2.894,2.88,2.88,0,0,0-2.237.526.2.2,0,0,0,0,.263C1403.251,371.532,1403.712,371.795,1404.172,372.058Z" transform="translate(-1359.576 -353.436)" fill="#717070"/>
        <circle id="Ellipse_28" data-name="Ellipse 28" cx="0.395" cy="0.395" r="0.395" transform="translate(28.545 20.267)" fill="#717070"/>
        <circle id="Ellipse_29" data-name="Ellipse 29" cx="0.395" cy="0.395" r="0.395" transform="translate(44.662 20.267)" fill="#717070"/>
        <path id="Path_53" data-name="Path 53" d="M1375.345,375.369a5.514,5.514,0,0,0,1.052,0V375.3a1.424,1.424,0,0,1,1.118-1.71,1.378,1.378,0,0,1,1.25.526h.066a1.286,1.286,0,0,0-.263-.921c-.395-.263-.921.329-1.974.526-2.039.46-3.158-1.184-4.276-.592-.987.526-1.184,2.5-.592,2.96C1372.385,376.619,1373.174,375.566,1375.345,375.369Z" transform="translate(-1348.904 -354.313)" fill="#717070"/>
        <path id="Path_54" data-name="Path 54" d="M1391.516,359.727a1.747,1.747,0,0,1-.329-.395c-.658-.987-.395-2.7.132-3.815a1.68,1.68,0,0,1,.46-.658,3.663,3.663,0,0,0,.921-1.842,5.092,5.092,0,0,0-.131-2.368,2.894,2.894,0,0,1-.131-.658c.263.526.46.921.658,1.25.066.132.2.263.263.395,0,.066,2.171,3.75.987,6.381a3.967,3.967,0,0,1-1.316,1.71,5.03,5.03,0,0,0,2.7-2.631c1.447-3.158-.987-7.039-1.118-7.236a11,11,0,0,1-.987-1.579,7.365,7.365,0,0,1-.658-2.566c-.066-.658-.131-1.118-.329-1.118-.2-.066-.46.461-.789,1.118a7.174,7.174,0,0,0-.987,2.96c-.066,1.513.592,1.776.329,2.96-.2.921-.658.921-1.25,1.908-.724,1.381-1.118,3.618,0,5.065A4.372,4.372,0,0,0,1391.516,359.727Z" transform="translate(-1355.01 -344.592)" fill="#717070"/>
      </g>
      <g id="Group_48" data-name="Group 48" transform="translate(824.259 804.65)">
        <g id="Group_96" data-name="Group 96" transform="translate(1.124 9.424)">
          <path id="Path_55" data-name="Path 55" d="M1427.784,372.9l-1.184.263.263,27.958,1.052-1.053Z" transform="translate(-1425.284 -372.703)" fill="#717070"/>
          <path id="Path_56" data-name="Path 56" d="M1427.3,372.6l-2.7.526v.066l.132,26.839,1.316,1.316,1.316-1.316Zm-1.25,28.615h-.131v-.132l-1.118-1.118-.132-26.773.987-.2h.131l1.381-.263.131,27.3-1.118,1.118v.066Z" transform="translate(-1424.6 -372.6)" fill="#717070"/>
          <path id="Path_57" data-name="Path 57" d="M1426.566,373.129l1.184-.263.132,27.168-1.052,1.053v.132l1.118-1.184-.132-27.234-1.316.263h.066Z" transform="translate(-1425.25 -372.668)" fill="#717070"/>
          <path id="Path_58" data-name="Path 58" d="M1426.8,416.1Z" transform="translate(-1425.353 -387.485)" fill="#717070"/>
          <path id="Path_59" data-name="Path 59" d="M1426.8,416.1Z" transform="translate(-1425.353 -387.485)" fill="#717070"/>
          <path id="Path_60" data-name="Path 60" d="M1425,400.171l-.131-26.708.921-.132V373.2l-.987.2.132,26.839,1.118,1.118v-.132Z" transform="translate(-1424.668 -372.805)" fill="#717070"/>
          <path id="Path_61" data-name="Path 61" d="M1426.4,373.3l.263,28.023h0l.131-.066-.263-27.958Z" transform="translate(-1425.216 -372.84)" fill="#717070"/>
          <path id="Path_62" data-name="Path 62" d="M1426.3,373.366l.263,27.892.066.066-.263-28.023Z" transform="translate(-1425.182 -372.84)" fill="#717070"/>
          <path id="Path_63" data-name="Path 63" d="M1426.8,416.066h.132V416Z" transform="translate(-1425.353 -387.45)" fill="#717070"/>
          <path id="Path_64" data-name="Path 64" d="M1426.432,373.2h-.066Z" transform="translate(-1425.182 -372.805)" fill="#717070"/>
          <path id="Path_65" data-name="Path 65" d="M1426.7,416.066h.066L1426.7,416Z" transform="translate(-1425.318 -387.45)" fill="#717070"/>
          <path id="Path_66" data-name="Path 66" d="M1426.932,415.8l-.132.066h0V416h0l.132-.066Z" transform="translate(-1425.353 -387.382)" fill="#717070"/>
          <path id="Path_67" data-name="Path 67" d="M1426.4,373.266h.131V373.2h-.131Z" transform="translate(-1425.216 -372.805)" fill="#717070"/>
          <path id="Path_68" data-name="Path 68" d="M1426.366,373.266V373.2h-.066v.132Z" transform="translate(-1425.182 -372.805)" fill="#717070"/>
          <path id="Path_69" data-name="Path 69" d="M1426.766,415.866l-.066-.066v.132l.066.066h0Z" transform="translate(-1425.318 -387.382)" fill="#717070"/>
        </g>
        <g id="Group_99" data-name="Group 99" transform="translate(0 0)">
          <g id="Group_97" data-name="Group 97" transform="translate(0.132 0.129)">
            <path id="Path_70" data-name="Path 70" d="M1424.281,369.212c-.263-.395-.263-.724.526-2.237a6.419,6.419,0,0,0-.789-4.407c-.526-.921-.921-1.053-.921-1.776-.066-.921.46-2.171,1.25-2.3,1.052-.2,2.237,1.118,2.3,2.3.066.789-.395.921-.724,2.171a5.861,5.861,0,0,0,.2,4.079c.46.921.592.724.46,1.776C1426.452,369.673,1424.676,369.87,1424.281,369.212Z" transform="translate(-1423.092 -358.47)" fill="#717070"/>
          </g>
          <g id="Group_98" data-name="Group 98">
            <path id="Path_71" data-name="Path 71" d="M1426.713,360.725a1.417,1.417,0,0,1-.263,1.053,4.78,4.78,0,0,0-.46,1.118,5.854,5.854,0,0,0,.2,4.013,3.877,3.877,0,0,1,.263.526c.263.395.329.526.2,1.316a1.289,1.289,0,0,1-1.184.855,1.427,1.427,0,0,1-1.381-.395h0c-.329-.461-.263-.855.526-2.3a7.357,7.357,0,0,0-.724-4.342,4.1,4.1,0,0,0-.526-.789,1.925,1.925,0,0,1-.46-1.053c-.066-.987.46-2.237,1.381-2.434a1.806,1.806,0,0,1,1.25.329c.132.066.2.2.329.263A3.4,3.4,0,0,1,1426.713,360.725Zm-1.25,8.683c.395-.066.921-.263.987-.724a1.332,1.332,0,0,0-.131-1.184c-.066-.132-.2-.263-.329-.526a5.832,5.832,0,0,1-.263-4.144,4.393,4.393,0,0,1,.46-1.184,1.51,1.51,0,0,0,.263-.921,2.886,2.886,0,0,0-1.118-1.908,1.52,1.52,0,0,0-1.118-.329c-.724.132-1.25,1.316-1.184,2.237a1.653,1.653,0,0,0,.395.921c.132.2.329.46.526.789a7.108,7.108,0,0,1,.789,4.473h0c-.789,1.447-.789,1.776-.526,2.105h0a.064.064,0,0,0,.066.066A1.29,1.29,0,0,0,1425.463,369.409Z" transform="translate(-1422.892 -358.274)" fill="#717070"/>
          </g>
        </g>
      </g>
      <g id="Group_49" data-name="Group 49" transform="translate(822.554 788.55)">
        <path id="Path_72" data-name="Path 72" d="M1428.325,343.112c-.987.987-1.052.921-1.118.855s0-.2.2-.592c.132-.263.329-.658.46-.987.592-1.842-.592-3.947-.855-4.407-.131.46-.395,1.184-.592,1.184-.131,0-.2-.263-.263-.724a6.9,6.9,0,0,0-.987-3.158,4.951,4.951,0,0,0-1.25-1.184c.2.526.789,2.171.395,2.434-.2.132-.592-.132-1.052-.46a5.7,5.7,0,0,0-.658-.46,4.447,4.447,0,0,0-1.118-.46,3.575,3.575,0,0,1,.855,2.829,1.768,1.768,0,0,1-.789.987.4.4,0,0,1-.263.066c-.2-.066-.263-.526-.263-.789a4.644,4.644,0,0,0-.724,2.237,5.674,5.674,0,0,0,.855,2.7c.2.395.329.526.2.658-.131.066-.526-.132-.789-.395a4.787,4.787,0,0,0,.855,2.039,5.877,5.877,0,0,0,.855.921c.329.329.526.46.46.592s-.263.132-.46.132a8.415,8.415,0,0,0,1.579,1.71,1.419,1.419,0,0,1,.592-1.053,1.469,1.469,0,0,1,.855-.395.242.242,0,0,0,.2-.066,3.064,3.064,0,0,0,1.316-.526c.132-.132.263-.329.329-.395-.987.329-1.053.329-1.053.263h0c0-.066.066-.066.2-.132a3.889,3.889,0,0,0,1.908-1.645A2.467,2.467,0,0,0,1428.325,343.112Zm-1.316,2.237c-.526.592-.987.395-1.71.921-.724.592-.789,1.25-1.25,1.316-.263,0-.46-.263-.724-.526-.592-.724-.526-1.184-.921-2.171a17.639,17.639,0,0,0-.789-1.71s.526.395.658.263c.2-.132-.592-1.184-.46-2.434a2.226,2.226,0,0,1,.592-1.118s.329.855.46.855c.2,0,.592-1.118.46-2.434a12.349,12.349,0,0,0-.395-1.973,4.955,4.955,0,0,1,.592.592c.789,1.053.855,1.973,1.118,1.908.2,0,.395-.921.395-.921a5.9,5.9,0,0,1,.329,1.908c0,1.908-.526,3.092-.329,3.223.132.066.658-.592.987-1.25a7.442,7.442,0,0,0,.789-2.171,3.9,3.9,0,0,1,.263,2.631c-.46,1.71-1.974,2.5-1.71,2.894.132.2.658.132.987,0a2.627,2.627,0,0,0,1.118-.789A2.691,2.691,0,0,1,1427.01,345.349Z" transform="translate(-1420.3 -333.903)" fill="#717070"/>
        <path id="Path_73" data-name="Path 73" d="M1428.391,342.878v-.066l-.066.066c-.395.395-.855.789-.987.921a2.155,2.155,0,0,1,.2-.395c.131-.263.329-.658.46-.987.724-2.105-.921-4.6-.921-4.6l-.066-.066v.132a3.3,3.3,0,0,1-.526,1.184c-.066,0-.066-.395-.131-.658a7.358,7.358,0,0,0-.987-3.223,4.192,4.192,0,0,0-1.447-1.316l-.132-.066.066.132c.329.855.789,2.237.46,2.5-.131.132-.526-.2-.921-.461-.2-.132-.46-.329-.658-.46a3.982,3.982,0,0,0-1.316-.526h-.132l.066.132s1.316,1.579.921,2.829a1.758,1.758,0,0,1-.724.921c-.066,0-.132.066-.132,0-.131-.066-.2-.526-.131-.855v-.2l-.132.132a4.53,4.53,0,0,0-.855,2.434,5.71,5.71,0,0,0,.855,2.763c.132.2.263.46.2.526a2.75,2.75,0,0,1-.724-.46l-.132-.066v.132a5.181,5.181,0,0,0,.855,2.237,6.02,6.02,0,0,0,.921.921c.2.2.46.46.395.46,0,.066-.263.066-.395.066h-.066l.066.066a5.828,5.828,0,0,0,1.71,1.842l.066.066v-.066a1.982,1.982,0,0,1,.526-1.118,2.065,2.065,0,0,1,1.052-.395,2.568,2.568,0,0,0,1.316-.592,1.1,1.1,0,0,0,.395-.592l.066-.132-.132.066c-.263.066-.526.2-.724.263a3.8,3.8,0,0,0,1.776-1.645A2.879,2.879,0,0,0,1428.391,342.878Zm-.066,1.776c-.526,1.25-2.171,1.71-2.1,1.776a7.186,7.186,0,0,0,1.118-.329,3.305,3.305,0,0,1-.395.526c-.855.724-1.71.395-2.368.987a2.168,2.168,0,0,0-.592,1.118,6.877,6.877,0,0,1-1.71-1.842s.395.066.46-.066c.131-.2-.658-.658-1.316-1.513a4.784,4.784,0,0,1-.855-2.171s.658.526.789.46c.2-.132-1.052-1.513-1.052-3.289a4.753,4.753,0,0,1,.789-2.434s-.066.789.2.921c.2.066.789-.395.921-.987.395-1.316-.921-2.894-.921-2.894a3.926,3.926,0,0,1,1.25.526c.658.46,1.381,1.118,1.579.921.395-.329-.46-2.566-.46-2.566a3.564,3.564,0,0,1,1.381,1.316c1.184,1.776.921,3.881,1.184,3.881.2,0,.592-1.25.592-1.25s1.645,2.434.921,4.539c-.263.724-.724,1.447-.658,1.513.131.066,1.118-.921,1.118-.921A2.617,2.617,0,0,1,1428.325,344.654Z" transform="translate(-1420.3 -333.8)" fill="#717070"/>
        <path id="Path_74" data-name="Path 74" d="M1428.392,342.878s-.987.987-1.118.921c-.066-.066.395-.789.658-1.513.724-2.105-.921-4.539-.921-4.539s-.329,1.25-.592,1.25,0-2.105-1.184-3.881a5.1,5.1,0,0,0-1.381-1.316s.921,2.237.46,2.566c-.263.2-.921-.526-1.579-.921a3.925,3.925,0,0,0-1.25-.526s1.316,1.579.921,2.894c-.2.592-.724,1.118-.921.987-.263-.066-.2-.921-.2-.921a4.165,4.165,0,0,0-.789,2.434c0,1.776,1.25,3.158,1.052,3.289-.132.066-.789-.461-.789-.461a4.784,4.784,0,0,0,.855,2.171c.658.855,1.447,1.316,1.316,1.513-.066.132-.46.066-.46.066a6.88,6.88,0,0,0,1.71,1.842c.132-.592.329-.987.592-1.118.658-.592,1.513-.263,2.368-.987a3.3,3.3,0,0,0,.395-.526,5.558,5.558,0,0,1-1.118.329c-.066-.066,1.579-.526,2.1-1.776A3.905,3.905,0,0,0,1428.392,342.878Zm0,1.776a3.36,3.36,0,0,1-1.908,1.645c-.2.066-.2.132-.2.132h0c0,.066.066.066,1.052-.263a.966.966,0,0,1-.329.395,2.24,2.24,0,0,1-1.316.526.242.242,0,0,0-.2.066,1.469,1.469,0,0,0-.855.395,2.33,2.33,0,0,0-.592,1.053,8.412,8.412,0,0,1-1.579-1.71c.131,0,.395,0,.46-.132s-.132-.329-.46-.592a5.879,5.879,0,0,1-.855-.921,4.787,4.787,0,0,1-.855-2.039c.263.2.658.461.789.395s0-.263-.2-.658a5.672,5.672,0,0,1-.855-2.7,4.035,4.035,0,0,1,.724-2.237,1.048,1.048,0,0,0,.263.789.5.5,0,0,0,.263-.066,1.767,1.767,0,0,0,.789-.987,3.574,3.574,0,0,0-.855-2.829,5.71,5.71,0,0,1,1.118.46c.2.132.46.329.658.461.46.329.855.658,1.052.46.395-.329-.2-1.908-.395-2.434a4.948,4.948,0,0,1,1.25,1.184,7.376,7.376,0,0,1,.987,3.158c.066.46.066.724.263.724s.46-.724.592-1.184c.263.46,1.513,2.565.855,4.407-.131.329-.329.724-.46.987-.2.395-.263.526-.2.592.066,0,.132.066,1.118-.855A5.776,5.776,0,0,1,1428.392,344.654Z" transform="translate(-1420.366 -333.8)" fill="#717070"/>
      </g>
      <path id="Path_46-2" data-name="Path 46" d="M1377.821,341.2a25.721,25.721,0,1,0,25.721,25.721A25.758,25.758,0,0,0,1377.821,341.2Zm23.156,25.787a23.182,23.182,0,0,1-6.184,15.722c-10.657-10.854-27.431-27.892-32.3-33.089a23.164,23.164,0,0,1,38.483,17.367Zm-46.311,0a23.173,23.173,0,0,1,5.92-15.459c1.052,1.184,2.895,3.158,5.986,6.315,2.631,2.7,6.249,6.447,10.854,11.117,5.92,6.052,12.564,12.762,15.393,15.656a23.2,23.2,0,0,1-38.154-17.63Z" transform="translate(-574.41 452.218)" fill="#df040b" stroke="#e87175" stroke-width="5"/>
    </g>
    <g id="Group_51" data-name="Group 51" transform="translate(967 694.065)">
      <text id="LIQUIDOS" transform="translate(7.565 9)" fill="#717070" font-size="9" font-family="Source Sans Pro" font-weight="600"><tspan x="0" y="0">LIQUIDOS</tspan></text>
      <text id="INFLAMABLES-2" data-name="INFLAMABLES" transform="translate(0 17.289)" fill="#717070" font-size="9" font-family="Source Sans Pro" font-weight="600"><tspan x="0" y="0">INFLAMABLES</tspan></text>
    </g>
    <text id="TÓXICO" transform="translate(1046 708.37)" fill="#717070" font-size="9" font-family="Source Sans Pro" font-weight="600"><tspan x="0" y="0">TÓXICO</tspan></text>
    <text id="ÁCIDOS" transform="translate(532.323 813.37)" fill="#717070" font-size="9" font-family="Source Sans Pro" font-weight="600"><tspan x="0" y="0">ÁCIDOS</tspan></text>
    <text id="AEROSOLES" transform="translate(594.951 813.37)" fill="#717070" font-size="9" font-family="Source Sans Pro" font-weight="600"><tspan x="0" y="0">AEROSOLES</tspan></text>
    <g id="Group_55" data-name="Group 55" transform="translate(668.62 802.813)">
      <text id="ARMAS" transform="translate(5.789 9)" fill="#717070" font-size="9" font-family="Source Sans Pro" font-weight="600"><tspan x="0" y="0">ARMAS</tspan></text>
      <text id="DE_FUEGO" data-name="DE FUEGO" transform="translate(0 17.289)" fill="#717070" font-size="9" font-family="Source Sans Pro" font-weight="600"><tspan x="0" y="0">DE FUEGO</tspan></text>
    </g>
    <text id="NAVAJAS" transform="translate(740 811.377)" fill="#717070" font-size="9" font-family="Source Sans Pro" font-weight="600"><tspan x="0" y="0">NAVAJAS</tspan></text>
    <g id="Group_141" data-name="Group 141" transform="translate(120.073 -159)">
      <path id="Path_8" data-name="Path 8" d="M1495.575,328.9c-.132.329-.263.526-.329.724a1.791,1.791,0,0,0,0,.592,1.287,1.287,0,0,0,.789,1.381,20.394,20.394,0,0,1,5.855,4.736,14.937,14.937,0,0,1,3.552,7.039,15.444,15.444,0,0,1,.329,2.434,1.4,1.4,0,0,0,.46.987,2.629,2.629,0,0,1,.066,3.552,1.451,1.451,0,0,0-.395.987v10.788a1.339,1.339,0,0,0,.395.987,2.691,2.691,0,0,1,.066,3.486,1.635,1.635,0,0,0-.46,1.316V380.8a1.851,1.851,0,0,0,.592,1.645,1.27,1.27,0,0,1,.46.987,10.676,10.676,0,0,1-.066,1.447,1.223,1.223,0,0,1-1.25,1.053h-28.155a1.161,1.161,0,0,1-1.25-.987,2.547,2.547,0,0,1,.592-2.7,1.256,1.256,0,0,0,.395-1.053V367.517a1.079,1.079,0,0,0-.395-.921c-.855-.724-.724-1.71-.592-2.7a1.569,1.569,0,0,1,.395-.724,1.858,1.858,0,0,0,.592-1.579v-9.8a1.989,1.989,0,0,0-.592-1.776,1.355,1.355,0,0,1-.46-1.118,7.96,7.96,0,0,1,.066-1.25,1.569,1.569,0,0,1,.395-.724,2.142,2.142,0,0,0,.658-1.513,15.281,15.281,0,0,1,4.21-9.538,24.71,24.71,0,0,1,5.2-4.21c1.184-.658,1.118-.46,1.052-2.039a1.92,1.92,0,0,0-.132-.592.318.318,0,0,1,.066-.46.541.541,0,0,0-.066-.789,2.23,2.23,0,0,1-.658-1.973v-.724c0-.526.132-.658.658-.789a9.606,9.606,0,0,1,1.447-.2H1494a5.48,5.48,0,0,1,1.447.2c.526.132.658.263.658.789v1.053a2.019,2.019,0,0,1-.526,1.579C1495.115,328.31,1495.18,328.442,1495.575,328.9Zm7.433,34.931v-8.618a4.563,4.563,0,0,0-1.645-3.552,5.779,5.779,0,0,0-2.237-1.25,10.594,10.594,0,0,0-3.552-.592h-7.368a18.6,18.6,0,0,0-2.7.2,8.179,8.179,0,0,0-3.421,1.381,4.749,4.749,0,0,0-2.039,3.947v16.775a4.681,4.681,0,0,0,2.105,4.013,7.721,7.721,0,0,0,4.473,1.447c3.289.066,6.578.066,9.8,0a7.86,7.86,0,0,0,4.276-1.381,4.794,4.794,0,0,0,2.237-4.144C1502.943,369.358,1503.008,366.6,1503.008,363.833Z" transform="translate(-617.06 458.085)" fill="#717070"/>
      <path id="Path_9" data-name="Path 9" d="M1492.2,420.6h13.551a.4.4,0,0,1,.395.592,4.107,4.107,0,0,1-1.118,1.842,4.455,4.455,0,0,1-1.513.921,10.278,10.278,0,0,1-3.75.724h-15.393a10.549,10.549,0,0,1-3.75-.724,4.094,4.094,0,0,1-2.5-2.5c-.066-.066-.066-.2-.132-.263-.066-.2.066-.46.263-.46a5.316,5.316,0,0,1,1.052-.066C1483.648,420.6,1487.924,420.6,1492.2,420.6Z" transform="translate(-617.698 425.066)" fill="#717070"/>
      <path id="Path_10" data-name="Path 10" d="M1495.39,387.869a3.294,3.294,0,0,1-.526-.46c-.987-1.053-.658-2.96.2-4.21.263-.329.46-.526.658-.789a4.239,4.239,0,0,0,1.381-2.039,3.829,3.829,0,0,0-.263-2.7,2.785,2.785,0,0,1-.263-.789,14.856,14.856,0,0,0,1.052,1.381c.132.132.263.329.395.46,0,.066,3.223,4.144,1.513,7.1a5.466,5.466,0,0,1-1.973,1.908,7.706,7.706,0,0,0,4.078-2.894c2.171-3.486-1.447-7.828-1.645-8.091a10.511,10.511,0,0,1-1.447-1.776,8.444,8.444,0,0,1-1.052-2.829c-.132-.724-.2-1.25-.526-1.25-.329-.066-.724.46-1.25,1.25a6.212,6.212,0,0,0-1.447,3.289c-.132,1.71.921,1.974.526,3.289-.329.987-.987.987-1.842,2.171-1.118,1.513-1.645,4.013,0,5.657A5.733,5.733,0,0,0,1495.39,387.869Z" transform="translate(-622.467 442.075)" fill="#717070"/>
      <path id="Path_47-2" data-name="Path 47" d="M1484.921,341.5a25.721,25.721,0,1,0,25.721,25.721A25.758,25.758,0,0,0,1484.921,341.5Zm23.155,25.787a23.182,23.182,0,0,1-6.183,15.722c-10.657-10.854-27.431-27.892-32.3-33.089a23.164,23.164,0,0,1,38.483,17.367Zm-46.311,0a23.172,23.172,0,0,1,5.92-15.459c1.052,1.184,2.894,3.158,5.986,6.315,2.631,2.7,6.249,6.447,10.854,11.117,5.921,6.052,12.564,12.762,15.393,15.656a23.2,23.2,0,0,1-38.154-17.63Z" transform="translate(-611.274 452.132)" fill="#df040b" stroke="#e87175" stroke-width="5"/>
    </g>
    <g id="Group_142" data-name="Group 142" transform="translate(116.884 -159)">
      <g id="Group_52" data-name="Group 52" transform="translate(928.516 786.027)">
        <g id="Group_102" data-name="Group 102">
          <path id="Path_80" data-name="Path 80" d="M1601.175,339.236c-.132.329-.263.526-.329.724a1.785,1.785,0,0,0,0,.592,1.286,1.286,0,0,0,.789,1.381,20.4,20.4,0,0,1,5.855,4.736,14.941,14.941,0,0,1,3.552,7.039,15.471,15.471,0,0,1,.329,2.434,1.4,1.4,0,0,0,.46.987,2.629,2.629,0,0,1,.066,3.552,1.45,1.45,0,0,0-.395.987v10.788a1.338,1.338,0,0,0,.395.987,2.691,2.691,0,0,1,.066,3.486,1.635,1.635,0,0,0-.46,1.316V391.2a1.851,1.851,0,0,0,.592,1.645,1.271,1.271,0,0,1,.46.987,10.636,10.636,0,0,1-.066,1.447,1.222,1.222,0,0,1-1.25,1.053h-28.155a1.161,1.161,0,0,1-1.25-.987,2.546,2.546,0,0,1,.592-2.7,1.256,1.256,0,0,0,.395-1.053V377.917a1.079,1.079,0,0,0-.395-.921c-.855-.724-.724-1.71-.592-2.7a1.566,1.566,0,0,1,.395-.724,1.859,1.859,0,0,0,.592-1.579v-9.8a1.989,1.989,0,0,0-.592-1.776,1.355,1.355,0,0,1-.46-1.118,7.974,7.974,0,0,1,.066-1.25,1.566,1.566,0,0,1,.395-.724,2.142,2.142,0,0,0,.658-1.513,15.28,15.28,0,0,1,4.21-9.538,23.511,23.511,0,0,1,5.262-4.21c1.184-.658,1.118-.461,1.052-2.039a1.917,1.917,0,0,0-.132-.592.318.318,0,0,1,.066-.46.537.537,0,0,0-.066-.789,2.23,2.23,0,0,1-.658-1.973v-.724c0-.526.132-.658.658-.789a9.608,9.608,0,0,1,1.447-.2h5a5.48,5.48,0,0,1,1.447.2c.526.132.658.263.658.789v1.053a2.018,2.018,0,0,1-.526,1.579C1600.715,338.644,1600.715,338.776,1601.175,339.236Zm7.368,35v-8.618a4.563,4.563,0,0,0-1.645-3.552,5.779,5.779,0,0,0-2.237-1.25,10.878,10.878,0,0,0-3.552-.592h-7.368a18.6,18.6,0,0,0-2.7.2,8.18,8.18,0,0,0-3.421,1.381,4.749,4.749,0,0,0-2.039,3.947v16.775a4.681,4.681,0,0,0,2.105,4.013,7.72,7.72,0,0,0,4.473,1.447c3.289.066,6.578.066,9.8,0a7.859,7.859,0,0,0,4.276-1.381,4.826,4.826,0,0,0,2.237-4.21C1608.543,379.758,1608.543,377,1608.543,374.233Z" transform="translate(-1581.71 -334.5)" fill="#717070"/>
          <path id="Path_81" data-name="Path 81" d="M1597.7,430.9h13.551a.4.4,0,0,1,.395.592,4.107,4.107,0,0,1-1.118,1.842,4.455,4.455,0,0,1-1.513.921,10.277,10.277,0,0,1-3.75.724h-15.393a10.549,10.549,0,0,1-3.75-.724,4.094,4.094,0,0,1-2.5-2.5c-.066-.066-.066-.2-.132-.263-.066-.2.066-.461.263-.461a5.316,5.316,0,0,1,1.052-.066C1589.148,430.9,1593.424,430.9,1597.7,430.9Z" transform="translate(-1582.313 -367.486)" fill="#717070"/>
        </g>
        <g id="Group_103" data-name="Group 103" transform="translate(7.493 32.165)">
          <path id="Path_82" data-name="Path 82" d="M1607.867,386.754a5.038,5.038,0,0,0-2.96-2.894,6.674,6.674,0,0,0-4.013-.263,5.354,5.354,0,0,0-3.421,3.158,3.4,3.4,0,0,0,.395,3.289,1.158,1.158,0,0,1,.2.921c-.395,1.184-.132,1.447-.132,1.447a4.629,4.629,0,0,0,.592.921,2.966,2.966,0,0,1,.658,1.25,9.12,9.12,0,0,0,1.052,3.026,3.03,3.03,0,0,0,2.7,1.316,3.483,3.483,0,0,0,3.092-2.039,11.607,11.607,0,0,0,.395-2.566,2.169,2.169,0,0,1,.592-1.053,1.324,1.324,0,0,0,.46-.724,2.11,2.11,0,0,0-.263-1.316A6.528,6.528,0,0,0,1607.867,386.754Zm-5.262,7.039v0Z" transform="translate(-1594.513 -383.397)" fill="#717070"/>
          <path id="Path_83" data-name="Path 83" d="M1606.63,389.995a3.4,3.4,0,0,1,.2-1.118,1.888,1.888,0,0,0,.066-1.513s-.46-1.053.2-.132a1.452,1.452,0,0,1,.131.921,5.471,5.471,0,0,0-.131,2.894,5.845,5.845,0,0,0,.658-3.881,4.173,4.173,0,0,0-2.829-2.96,6.041,6.041,0,0,0-4.6.132,4.657,4.657,0,0,0-2.237,2.039,3.792,3.792,0,0,0,.263,3.881s.263,0,.066-1.645a2.683,2.683,0,0,1-.066-.855s.066-.329.132-.526a.144.144,0,0,1,.2-.066s.2,0,.066.263c0,0-.2.2-.131.855a5.7,5.7,0,0,1,.131,2.039,3.258,3.258,0,0,0-.329,2.105,1.281,1.281,0,0,0,.855.724s1.381.46,1.316,1.645c0,0,0,.263.395,0,0,0,.2-.066.263.066a.329.329,0,0,1,.395.263s.263-.132.395.066c0,0,.395-.2.526,0a.523.523,0,0,1,.526.066s.329-.263.526-.132c0,0,.329-.395.592-.132,0,0,.263-.395.592-.2a.487.487,0,0,1,.789-.132,1.838,1.838,0,0,1,.724-1.381l.658-.46s.526-.2.2-1.118C1607.024,391.771,1606.63,390.784,1606.63,389.995Z" transform="translate(-1594.657 -383.546)" fill="#717070"/>
          <path id="Path_84" data-name="Path 84" d="M1606.544,399.877l-.066.921a.257.257,0,0,1-.329.263s-.066.461-.329.329c0,0-.066.461-.46.263,0,0-.263.592-.724.329,0,0-.329.329-.526.066,0,0-.2.395-.592.066a.387.387,0,0,1-.658-.066.376.376,0,0,1-.526-.132s-.329.066-.395-.2a.384.384,0,0,1-.395-.132l-.2-.2c-.263-.2-.329-1.052-.329-1.052a2.676,2.676,0,0,0-.132-.658,1.24,1.24,0,0,0-.987-.987,9.4,9.4,0,0,1,.526,1.908,6.427,6.427,0,0,0,.987,2.3,3.122,3.122,0,0,0,2.171.987,3.239,3.239,0,0,0,2.237-.987,5.014,5.014,0,0,0,.921-1.513,14.172,14.172,0,0,0,.132-1.579,2.213,2.213,0,0,1,.395-1.118C1607.333,398.627,1606.61,398.759,1606.544,399.877Z" transform="translate(-1595.427 -388.626)" fill="#717070"/>
          <path id="Path_85" data-name="Path 85" d="M1603.258,401.232s0-.066-.132-.132c0,0-.066,0-.131.132v.066c0,.066-.066.263.131.263C1603.126,401.626,1603.323,401.692,1603.258,401.232Z" transform="translate(-1596.482 -389.454)" fill="#717070"/>
          <path id="Path_86" data-name="Path 86" d="M1602.858,402.132s0-.066-.131-.132c0,0-.066,0-.132.132v.066c0,.066-.066.263.132.263C1602.726,402.526,1602.924,402.592,1602.858,402.132Z" transform="translate(-1596.345 -389.762)" fill="#717070"/>
          <path id="Path_87" data-name="Path 87" d="M1602.323,401.766a.064.064,0,0,0-.066-.066s-.066,0-.066.132h0s-.066.2.066.2C1602.192,402.095,1602.323,402.16,1602.323,401.766Z" transform="translate(-1596.205 -389.66)" fill="#717070"/>
          <path id="Path_88" data-name="Path 88" d="M1609.523,401.366a.064.064,0,0,0-.066-.066s-.066,0-.066.132v.066c0,.066-.066.2.066.2C1609.457,401.629,1609.523,401.695,1609.523,401.366Z" transform="translate(-1598.669 -389.523)" fill="#717070"/>
          <path id="Path_89" data-name="Path 89" d="M1608.932,401.866a.064.064,0,0,0-.066-.066s-.066,0-.066.132V402c0,.066,0,.2.132.2C1608.866,402.195,1609,402.26,1608.932,401.866Z" transform="translate(-1598.472 -389.694)" fill="#717070"/>
          <path id="Path_90" data-name="Path 90" d="M1608.4,402.232s0-.066-.132-.132c0,0-.066,0-.066.2v.066c0,.066,0,.329.131.329C1608.332,402.692,1608.463,402.758,1608.4,402.232Z" transform="translate(-1598.267 -389.796)" fill="#717070"/>
          <path id="Path_91" data-name="Path 91" d="M1608.8,400.666s0-.066-.132-.066c0,0-.066,0-.066.2v.066c0,.066,0,.263.132.263C1608.732,401.06,1608.929,401.126,1608.8,400.666Z" transform="translate(-1598.404 -389.283)" fill="#717070"/>
          <path id="Path_92" data-name="Path 92" d="M1603.4,401.3" transform="translate(-1596.624 -389.523)" fill="#717070"/>
          <path id="Path_93" data-name="Path 93" d="M1602.763,401.032a.129.129,0,0,0-.131-.132c-.132,0-.132.2-.132.2,0,.329.132.263.132.263.131,0,.131-.329.131-.329Z" transform="translate(-1596.317 -389.386)" fill="#717070"/>
          <path id="Path_94" data-name="Path 94" d="M1604,401.37s-.132-.132-.2,0v.263s0,.132.066.132c0,0,.132.066.132-.066C1604,401.764,1604.063,401.435,1604,401.37Z" transform="translate(-1596.761 -389.526)" fill="#717070"/>
          <path id="Path_95" data-name="Path 95" d="M1604.76,401.891v-.2c0-.263-.263-.2-.263-.2a.193.193,0,0,0-.2.2c0,.46.263.395.263.395C1604.826,402.022,1604.76,401.891,1604.76,401.891Z" transform="translate(-1596.932 -389.587)" fill="#717070"/>
          <path id="Path_96" data-name="Path 96" d="M1605.729,401.86c0-.329-.2-.263-.2-.263-.131,0-.131.263-.131.263,0,.329.2.329.2.329C1605.795,402.123,1605.729,401.86,1605.729,401.86Z" transform="translate(-1597.309 -389.623)" fill="#717070"/>
          <path id="Path_97" data-name="Path 97" d="M1605.3,402" transform="translate(-1597.275 -389.762)" fill="#717070"/>
          <path id="Path_98" data-name="Path 98" d="M1606.555,401.663c0-.263-.2-.263-.2-.263-.132.066-.066.263-.066.263,0,.46.2.395.2.395C1606.62,401.926,1606.555,401.663,1606.555,401.663Z" transform="translate(-1597.608 -389.557)" fill="#717070"/>
          <path id="Path_99" data-name="Path 99" d="M1606.2,401.8" transform="translate(-1597.583 -389.694)" fill="#717070"/>
          <path id="Path_100" data-name="Path 100" d="M1607.429,401.429c0-.329-.2-.329-.2-.329-.132,0-.132.066-.132.066v.461c.066.066.2,0,.2,0A.234.234,0,0,0,1607.429,401.429Z" transform="translate(-1597.89 -389.454)" fill="#717070"/>
          <path id="Path_101" data-name="Path 101" d="M1607.629,402.6v-.132s0-.066-.131-.066c0,0-.2,0-.2.329,0,.132.329.329.329.2Z" transform="translate(-1597.959 -389.899)" fill="#717070"/>
          <path id="Path_102" data-name="Path 102" d="M1608.229,401.263c0-.263-.2-.263-.2-.263-.131,0-.131.263-.131.263,0,.329.131.263.131.263C1608.295,401.461,1608.229,401.263,1608.229,401.263Z" transform="translate(-1598.164 -389.42)" fill="#717070"/>
          <path id="Path_103" data-name="Path 103" d="M1603.589,402.594c0-.263-.132-.2-.132-.2-.132,0-.066.2-.066.2,0,.329.131.263.131.263C1603.655,402.791,1603.589,402.594,1603.589,402.594Z" transform="translate(-1596.616 -389.895)" fill="#717070"/>
          <path id="Path_104" data-name="Path 104" d="M1604.389,402.894c0-.263-.131-.2-.131-.2-.132,0-.066.2-.066.2,0,.329.132.263.132.263C1604.389,403.091,1604.389,402.894,1604.389,402.894Z" transform="translate(-1596.89 -389.998)" fill="#717070"/>
          <path id="Path_105" data-name="Path 105" d="M1605.089,402.963c0-.263-.131-.263-.131-.263-.132,0-.066.263-.066.263,0,.329.132.263.132.263C1605.089,403.16,1605.089,402.963,1605.089,402.963Z" transform="translate(-1597.129 -390.002)" fill="#717070"/>
          <path id="Path_106" data-name="Path 106" d="M1605.955,402.963c0-.263-.2-.263-.2-.263-.132,0-.066.263-.066.263,0,.329.132.263.132.263A.2.2,0,0,0,1605.955,402.963Z" transform="translate(-1597.403 -390.002)" fill="#717070"/>
          <path id="Path_107" data-name="Path 107" d="M1606.789,402.86c0-.329-.132-.263-.132-.263-.131,0-.066.263-.066.263,0,.395.132.263.132.263C1606.789,403.123,1606.789,402.86,1606.789,402.86Z" transform="translate(-1597.711 -389.965)" fill="#717070"/>
          <path id="Path_108" data-name="Path 108" d="M1607.9,401.4" transform="translate(-1598.164 -389.557)" fill="#717070"/>
          <path id="Path_109" data-name="Path 109" d="M1608.412,392.793l-.789.066a.727.727,0,0,0-.724.789,1.376,1.376,0,0,0,.263.789c.723,1.053,1.118.855,1.118.855,1.052-.132,1.118-1.579,1.118-1.579C1609.531,392.6,1608.412,392.793,1608.412,392.793Z" transform="translate(-1597.821 -386.607)" fill="#717070"/>
          <path id="Path_110" data-name="Path 110" d="M1602.94,393.172a1.6,1.6,0,0,0-1.25-.2,3.52,3.52,0,0,0-.789.46c-.329.263-.132.987-.132.987a1.881,1.881,0,0,0,.921.921c.592.263,1.052-.46,1.052-.46a2.418,2.418,0,0,0,.46-1.184A.544.544,0,0,0,1602.94,393.172Z" transform="translate(-1595.704 -386.657)" fill="#717070"/>
          <path id="Path_111" data-name="Path 111" d="M1604.2,396.755c-.395.921-.066,1.25-.066,1.25.263.395.658,0,.658,0,.066-.066.066-2.105.066-2.105C1604.462,396.032,1604.2,396.755,1604.2,396.755Z" transform="translate(-1596.831 -387.675)" fill="#717070"/>
          <path id="Path_112" data-name="Path 112" d="M1606.589,396.689c-.2-.855-.724-.789-.724-.789h-.066l.066,2.105a1.71,1.71,0,0,0,.46.2c.395.066.395-.395.395-.395C1606.721,397.544,1606.589,396.689,1606.589,396.689Z" transform="translate(-1597.446 -387.674)" fill="#717070"/>
          <path id="Path_113" data-name="Path 113" d="M1614.973,399.237h0c-.2-.263-.263-.263-.263-.592a.8.8,0,0,0-.066-.329c-.329-.592-.658-.263-.658-.263a2.661,2.661,0,0,1-.724.395l-2.434.921-.2.066-.132,1.381.2-.066,1.776-.855a2.263,2.263,0,0,1,1.776.066c.526.2.658,0,.658,0A.731.731,0,0,0,1614.973,399.237Z" transform="translate(-1599.054 -388.38)" fill="#717070"/>
          <path id="Path_114" data-name="Path 114" d="M1614.847,399.51a.2.2,0,0,0-.066-.132.366.366,0,0,1-.131-.395s.131-.526-.395-.395l-3.289,1.381-.066.592a13.04,13.04,0,0,1,1.908-.921,1.905,1.905,0,0,1,1.184-.066l.592.2C1614.518,399.773,1615.044,399.97,1614.847,399.51Z" transform="translate(-1599.191 -388.588)" fill="#717070"/>
          <path id="Path_115" data-name="Path 115" d="M1613.513,404.387a3.272,3.272,0,0,1-1.052-.066l-2.237-.855-.132-.066-.592.921.2.132c.789.329,1.513.592,2.3.921a3.546,3.546,0,0,1,.855.46.983.983,0,0,0,.46.2.412.412,0,0,0,.526-.395,1.361,1.361,0,0,1,.132-.526c.066-.132.2-.2.2-.263v-.066C1614.236,404.124,1613.513,404.387,1613.513,404.387Z" transform="translate(-1598.712 -390.241)" fill="#717070"/>
          <path id="Path_116" data-name="Path 116" d="M1613.715,404.853a2.571,2.571,0,0,1-1.316-.132l-2.171-.921-.329.461,1.908.789a5.881,5.881,0,0,1,1.184.46s.658.592.724-.2a.425.425,0,0,1,.2-.329C1613.979,404.984,1614.242,404.655,1613.715,404.853Z" transform="translate(-1598.849 -390.378)" fill="#717070"/>
          <path id="Path_117" data-name="Path 117" d="M1597.9,399.532l-.263-.066-1.513-.46a12.618,12.618,0,0,1-1.973-.789c-.658-.395-.724.066-.724.066-.066.2.066.461-.066.658-.066.132-.263.263-.263.46.066.724.855.329.855.329a1.027,1.027,0,0,1,.658,0l3.421,1.053.2.066Z" transform="translate(-1593.1 -388.413)" fill="#717070"/>
          <path id="Path_118" data-name="Path 118" d="M1597.851,399.985a28.526,28.526,0,0,1-3.421-1.118l-.329-.2s-.329-.2-.329.132v.395a.408.408,0,0,1-.131.263s-.329.329.131.263a3.119,3.119,0,0,1,.855,0l3.421.987Z" transform="translate(-1593.246 -388.602)" fill="#717070"/>
          <path id="Path_119" data-name="Path 119" d="M1598.8,403.1l-.132.066-2.763.987a3.178,3.178,0,0,1-.79.132c-.46-.066-.526.263-.526.263a.465.465,0,0,0,.131.461.852.852,0,0,1,.2.46.8.8,0,0,0,.066.329c.263.461.724,0,.724,0a3.718,3.718,0,0,1,1.118-.592l2.368-.921.132-.066Z" transform="translate(-1593.608 -390.139)" fill="#717070"/>
          <path id="Path_120" data-name="Path 120" d="M1599.007,403.5l-2.894,1.053a1.478,1.478,0,0,1-.658.066s-.46-.066-.2.395a2.039,2.039,0,0,1,.132.461s-.066.395.395.066a4.037,4.037,0,0,1,1.118-.592l2.3-.855Z" transform="translate(-1593.811 -390.275)" fill="#717070"/>
        </g>
      </g>
      <path id="Path_48-2" data-name="Path 48" d="M1591.621,351.9a25.721,25.721,0,1,0,25.721,25.721A25.758,25.758,0,0,0,1591.621,351.9Zm23.155,25.721a23.182,23.182,0,0,1-6.184,15.722c-10.657-10.854-27.431-27.892-32.3-33.089a23.164,23.164,0,0,1,38.483,17.367Zm-46.311,0a23.172,23.172,0,0,1,5.92-15.459c1.052,1.184,2.895,3.158,5.986,6.315,2.631,2.7,6.249,6.447,10.854,11.117,5.92,6.052,12.564,12.762,15.393,15.656a23.2,23.2,0,0,1-38.154-17.63Z" transform="translate(-647.784 445.573)" fill="#df040b" stroke="#e87175" stroke-width="5"/>
    </g>
    <g id="Group_143" data-name="Group 143" transform="translate(124 -159)">
      <g id="Group_53" data-name="Group 53" transform="translate(407.034 891.027)">
        <g id="Group_105" data-name="Group 105" transform="translate(6.375 36.509)">
          <path id="Path_122" data-name="Path 122" d="M1701.429,393.818h-1.447l-.263,1.118H1698.6l1.513-4.736h1.25l1.513,4.736h-1.118Zm-.263-.855-.132-.461c-.066-.263-.131-.461-.2-.789l-.2-.789h0l-.2.789c-.066.263-.132.526-.2.724l-.132.461h1.052Z" transform="translate(-1698.6 -390.068)" fill="#717070"/>
          <path id="Path_123" data-name="Path 123" d="M1704.9,392.5a2.727,2.727,0,0,1,.2-1.053,2.276,2.276,0,0,1,.46-.789,1.7,1.7,0,0,1,.724-.46,2.026,2.026,0,0,1,.855-.2,1.4,1.4,0,0,1,.789.2,1.432,1.432,0,0,1,.592.46l-.592.658a1.373,1.373,0,0,0-.395-.263.975.975,0,0,0-.46-.066.951.951,0,0,0-.46.132,1.744,1.744,0,0,0-.395.329,1.06,1.06,0,0,0-.263.46,2.028,2.028,0,0,0-.066.658,1.881,1.881,0,0,0,.329,1.118.977.977,0,0,0,.855.395,1.239,1.239,0,0,0,.526-.132,1.742,1.742,0,0,0,.395-.329l.592.658a1.67,1.67,0,0,1-.658.526,1.822,1.822,0,0,1-.855.2,3.333,3.333,0,0,1-.855-.132,2.714,2.714,0,0,1-.724-.46,1.578,1.578,0,0,1-.46-.789A5.782,5.782,0,0,1,1704.9,392.5Z" transform="translate(-1700.756 -390)" fill="#717070"/>
          <path id="Path_124" data-name="Path 124" d="M1711.2,390.2h1.052v4.736H1711.2Z" transform="translate(-1702.911 -390.068)" fill="#717070"/>
          <path id="Path_125" data-name="Path 125" d="M1714,390.2h1.316a3.98,3.98,0,0,1,.987.132,2.552,2.552,0,0,1,.724.395,1.7,1.7,0,0,1,.46.724,4.287,4.287,0,0,1,.2,1.053,2.5,2.5,0,0,1-.2,1.052,1.96,1.96,0,0,1-.46.724,2.716,2.716,0,0,1-.724.46,3.881,3.881,0,0,1-.921.132H1714Zm1.316,3.881a1.282,1.282,0,0,0,.526-.066.6.6,0,0,0,.395-.263,1.06,1.06,0,0,0,.263-.46,4.012,4.012,0,0,0,0-1.447,1.059,1.059,0,0,0-.263-.46,1.375,1.375,0,0,0-.395-.263,1.448,1.448,0,0,0-.526-.066h-.2v3.026Z" transform="translate(-1703.87 -390.068)" fill="#717070"/>
          <path id="Path_126" data-name="Path 126" d="M1722.405,394.934a1.821,1.821,0,0,1-.855-.2,2.361,2.361,0,0,1-.658-.46,2.273,2.273,0,0,1-.46-.789,2.726,2.726,0,0,1-.132-1.052,5.1,5.1,0,0,1,.132-1.053,3.114,3.114,0,0,1,.46-.789,1.5,1.5,0,0,1,.658-.46,1.806,1.806,0,0,1,.855-.132,3.333,3.333,0,0,1,.855.132,2.366,2.366,0,0,1,.658.46,2.277,2.277,0,0,1,.46.789,2.731,2.731,0,0,1,.131,1.053,5.121,5.121,0,0,1-.131,1.052,2.277,2.277,0,0,1-.46.789,1.505,1.505,0,0,1-.658.46A1.821,1.821,0,0,1,1722.405,394.934Zm0-.921a.938.938,0,0,0,.789-.395,2.508,2.508,0,0,0,0-2.237.987.987,0,0,0-1.579,0,1.883,1.883,0,0,0-.263,1.118,2.024,2.024,0,0,0,.066.658,3.183,3.183,0,0,0,.2.461.792.792,0,0,0,.329.329A.975.975,0,0,0,1722.405,394.013Z" transform="translate(-1706.025 -390)" fill="#717070"/>
        </g>
        <g id="Group_106" data-name="Group 106" transform="translate(0 0)">
          <path id="Path_127" data-name="Path 127" d="M1708.243,339.368c-.132.329-.263.526-.329.724a1.791,1.791,0,0,0,0,.592,1.287,1.287,0,0,0,.789,1.381,21.033,21.033,0,0,1,5.789,4.671,15.672,15.672,0,0,1,3.552,6.973,15.473,15.473,0,0,1,.329,2.434,1.4,1.4,0,0,0,.46.987,2.615,2.615,0,0,1,.066,3.486,1.45,1.45,0,0,0-.395.987v10.723a1.338,1.338,0,0,0,.395.987,2.6,2.6,0,0,1,.066,3.421,1.635,1.635,0,0,0-.46,1.316v12.828a1.917,1.917,0,0,0,.592,1.645,1.184,1.184,0,0,1,.46.987,10.637,10.637,0,0,1-.066,1.447,1.122,1.122,0,0,1-1.25.987h-27.958a1.161,1.161,0,0,1-1.25-.987,2.575,2.575,0,0,1,.592-2.7,1.129,1.129,0,0,0,.395-.987V377.653a1.079,1.079,0,0,0-.395-.921c-.855-.724-.724-1.71-.592-2.7a1.566,1.566,0,0,1,.395-.724,1.792,1.792,0,0,0,.592-1.579V362a1.989,1.989,0,0,0-.592-1.776,1.355,1.355,0,0,1-.46-1.118,7.974,7.974,0,0,1,.066-1.25,1.566,1.566,0,0,1,.395-.724,2.141,2.141,0,0,0,.658-1.513,15.732,15.732,0,0,1,4.144-9.538,22.524,22.524,0,0,1,5.2-4.144c1.184-.658,1.118-.46,1.053-2.039a1.924,1.924,0,0,0-.132-.592.317.317,0,0,1,.066-.46.515.515,0,0,0-.066-.724,2.428,2.428,0,0,1-.658-1.973v-.724c0-.461.132-.658.658-.724a9.608,9.608,0,0,1,1.447-.2h4.934a5.866,5.866,0,0,1,1.447.2c.526.132.658.263.658.724v1.053a2.018,2.018,0,0,1-.526,1.579C1707.783,338.776,1707.849,338.907,1708.243,339.368Zm7.368,34.01V368.9c0-.724-.592-1.381-1.645-1.842a7.43,7.43,0,0,0-2.237-.658,20.365,20.365,0,0,0-3.552-.329h-7.3c-.855,0-1.776,0-2.631.066a11.3,11.3,0,0,0-3.421.724c-1.316.526-2.039,1.184-2.039,2.105v8.749c0,.921.723,1.579,2.1,2.105a13.457,13.457,0,0,0,4.407.789h9.736a12.958,12.958,0,0,0,4.276-.724c1.447-.526,2.237-1.25,2.237-2.171C1715.545,376.272,1715.611,374.825,1715.611,373.378Z" transform="translate(-1688.91 -334.5)" fill="#717070"/>
          <path id="Path_128" data-name="Path 128" d="M1704.9,430.6h13.485c.329,0,.46.263.395.592a3.587,3.587,0,0,1-1.118,1.776,5.816,5.816,0,0,1-1.513.921,10.2,10.2,0,0,1-3.684.724H1697.14a10.2,10.2,0,0,1-3.684-.724,4.157,4.157,0,0,1-2.5-2.434.4.4,0,0,1-.066-.263c-.066-.2.066-.46.263-.46a5.315,5.315,0,0,1,1.052-.066C1696.417,430.6,1700.627,430.6,1704.9,430.6Z" transform="translate(-1689.582 -367.383)" fill="#717070"/>
        </g>
      </g>
      <path id="Path_49-2" data-name="Path 49" d="M1698.721,351.8a25.721,25.721,0,1,0,25.721,25.721A25.758,25.758,0,0,0,1698.721,351.8Zm23.156,25.721a23.182,23.182,0,0,1-6.184,15.722c-10.657-10.854-27.431-27.892-32.3-33.089a23.164,23.164,0,0,1,38.483,17.367Zm-46.311,0a23.173,23.173,0,0,1,5.92-15.459c1.052,1.184,2.895,3.158,5.986,6.315,2.631,2.7,6.249,6.447,10.854,11.117,5.92,6.052,12.564,12.762,15.393,15.656a23.2,23.2,0,0,1-38.154-17.63Z" transform="translate(-1276.431 550.607)" fill="#df040b" stroke="#e87175" stroke-width="5"/>
    </g>
    <g id="Group_145" data-name="Group 145" transform="translate(124.328 -159)">
      <path id="Path_33-2" data-name="Path 33" d="M1371.459,558.881h0c.658-.461,1.381-1.052,2.171-1.645l-6.907-24.537L1361,536.779l5.065,24.208v.132s0,.2.066.263S1367.184,561.973,1371.459,558.881Zm-7.565-22.761a.895.895,0,1,1-.2,1.25A.922.922,0,0,1,1363.895,536.121Zm4.8,19.866a.895.895,0,1,1-.2,1.25A.855.855,0,0,1,1368.7,555.987Z" transform="translate(-814.447 390.034)" fill="#717070"/>
      <path id="Path_34-2" data-name="Path 34" d="M1388.287,487.926l-.592.46-.724-.987-2.171,1.579.724.987-33.417,23.879-1.447-.526-.724.526.526.789-.658.724-1.052.987s-.066,4.276,1.381,5.855l1.25,2.631s-7.039,8.881,1.513,4.078c0,0,3.486-1.316,4.6,6.118l2.5,12.893s4.8,1.118,13.156-6.118c0,0-5.855-14.143-3.552-17.3,0,0,8.091-4.736,7.96-8.289,0,0-2.105-4.736-.395-7.1l8.486-6.052-.131-1.184,8.552-6.118-1.71-2.434L1352.5,521.87l-.855.724c-.131-.263.526-1.184.526-1.184l39.864-28.55-.131-.132-.855-1.184.395-.263-2.171-3.026Zm-24.208,26.313,4.868-3.486a1.257,1.257,0,0,1,1.25.2.717.717,0,0,1-.131.921l-4.868,3.486a.717.717,0,0,1-.921-.132C1364.013,514.963,1363.75,514.5,1364.079,514.239Zm3.75,1.184,3.289-2.368a3.686,3.686,0,0,1,4.276,5.92l-3.289,2.368a3.437,3.437,0,0,1-4.736-1.118A3.387,3.387,0,0,1,1367.829,515.423Zm-.592,8.157a1.04,1.04,0,1,1,.263-1.447A1.051,1.051,0,0,1,1367.237,523.58Zm-11.183-2.566,6.907-4.934,7.3,25.918c-9.6,7.7-9.078,3.552-9.078,3.552Zm.921-3.684c-.132,0-.263-.066-.263-.2l-.921-4.407c0-.132.066-.263.2-.263s.263.066.263.2l.921,4.407C1357.172,517.2,1357.106,517.331,1356.975,517.331Zm.921-.658c-.132,0-.263-.066-.263-.2l-.921-4.407c0-.132.066-.263.2-.263s.263.066.263.2l.921,4.407C1358.159,516.476,1358.027,516.607,1357.9,516.673Zm.987-.658c-.132,0-.263-.066-.263-.2l-.921-4.407c0-.132.066-.263.2-.263s.263.066.263.2l.921,4.407A.353.353,0,0,1,1358.882,516.015Zm.921-.724c-.131,0-.263-.066-.263-.2l-.921-4.407c0-.132.066-.263.2-.263s.263.066.263.2l.921,4.407C1360,515.16,1359.935,515.292,1359.8,515.292Zm.921-.658c-.131,0-.263-.066-.263-.2l-.921-4.407c0-.132.066-.263.2-.263s.263.066.263.2l.921,4.407C1360.987,514.5,1360.922,514.634,1360.724,514.634Zm.263-5.394.921,4.407c0,.132-.066.263-.2.263s-.263-.066-.263-.2l-.921-4.407c0-.132.066-.263.2-.263S1360.987,509.108,1360.987,509.24Z" transform="translate(-810.225 405.535)" fill="#717070"/>
      <g id="Group_66" data-name="Group 66" transform="translate(537.672 901.42)">
        <path id="Path_155" data-name="Path 155" d="M1373.221,500.3a25.721,25.721,0,1,0,25.721,25.721A25.758,25.758,0,0,0,1373.221,500.3Zm23.156,25.787a23.182,23.182,0,0,1-6.184,15.722c-10.657-10.854-27.431-27.892-32.3-33.089a23.164,23.164,0,0,1,38.483,17.367Zm-46.311,0a23.173,23.173,0,0,1,5.92-15.459c1.053,1.184,2.894,3.158,5.986,6.315,2.631,2.7,6.249,6.447,10.854,11.117,5.92,6.052,12.564,12.762,15.393,15.656a23.2,23.2,0,0,1-38.154-17.63Z" transform="translate(-1347.5 -500.3)" fill="#df040b" stroke="#e87175" stroke-width="5"/>
      </g>
    </g>
    <g id="Group_146" data-name="Group 146" transform="translate(123.743 -159)">
      <path id="Path_30-2" data-name="Path 30" d="M1495.345,550.87v-3.486a.855.855,0,0,1,1.71,0v.066c0,.066.131.066.329.066h3.815a.311.311,0,0,0,.329-.329V493.771a.311.311,0,0,0-.329-.329h-3.815a.8.8,0,0,0-.329.066v.066a.855.855,0,0,1-1.71,0v-3.421a1.039,1.039,0,0,0-1.052-1.053h-15.656a1.039,1.039,0,0,0-1.052,1.053v3.421a.855.855,0,0,1-1.71,0v-.066c0-.066-.131-.066-.329-.066h-3.815a.311.311,0,0,0-.329.329v53.415a.311.311,0,0,0,.329.329h3.815a.8.8,0,0,0,.329-.066v-.066a.855.855,0,0,1,1.71,0v3.486a1.039,1.039,0,0,0,1.052,1.052h15.656A1.039,1.039,0,0,0,1495.345,550.87Zm5.2-47.429c0,2.3.066,5,.066,7.96v18.156c0,2.894-.066,5.591-.066,7.96,0,2.3-.066,4.276-.066,5.592,0,1.381-.066,2.1-.066,2.1s0-.789-.066-2.1c0-1.381-.066-3.289-.066-5.592s-.066-5-.066-7.96V511.4c0-2.894.066-5.592.066-7.96.066-4.671.132-7.762.132-7.762S1500.476,498.836,1500.542,503.441Zm-28.089,39.667c0-1.381-.066-3.289-.066-5.591s-.066-5-.066-7.96V511.4c0-2.894.066-5.592.066-7.96.066-4.671.132-7.762.132-7.762s.066,3.092.132,7.762c0,2.3.066,5,.066,7.96v18.156c0,2.894-.066,5.591-.066,7.96,0,2.3-.066,4.276-.066,5.591,0,1.381-.066,2.105-.066,2.105S1472.453,544.423,1472.453,543.107Zm9.867.855c0-.724,1.053-1.25,2.631-1.513v-1.908l-2.3-1.71a.676.676,0,0,1,0-1.118l2.3-1.71V534.1c-1.513-.263-2.631-.855-2.631-1.513s1.053-1.25,2.631-1.513V524.1a3.848,3.848,0,0,1,0-7.1v-6.973c-1.513-.263-2.631-.855-2.631-1.513,0-.724,1.053-1.25,2.631-1.513v-1.908l-2.3-1.71a.676.676,0,0,1,0-1.118l2.3-1.71v-1.908c-1.513-.263-2.631-.855-2.631-1.513,0-.921,1.842-1.645,4.144-1.645s4.144.724,4.144,1.645c0,.658-1.053,1.25-2.631,1.513v1.908l2.3,1.71a.676.676,0,0,1,0,1.118l-2.3,1.71v1.908c1.513.263,2.631.855,2.631,1.513s-1.053,1.25-2.631,1.513v6.973a3.848,3.848,0,0,1,0,7.1v6.973c1.513.263,2.631.855,2.631,1.513s-1.053,1.25-2.631,1.513V536l2.3,1.71a.676.676,0,0,1,0,1.118l-2.3,1.71v1.908c1.513.263,2.631.855,2.631,1.513,0,.921-1.842,1.645-4.144,1.645S1482.32,544.884,1482.32,543.963Z" transform="translate(-852.224 404.953)" fill="#717070"/>
      <g id="Group_68" data-name="Group 68" transform="translate(608.257 902.999)">
        <path id="Path_157" data-name="Path 157" d="M1480.521,502.7a25.721,25.721,0,1,0,25.721,25.721A25.758,25.758,0,0,0,1480.521,502.7Zm23.156,25.787a23.182,23.182,0,0,1-6.184,15.722c-10.657-10.854-27.431-27.892-32.3-33.089a23.164,23.164,0,0,1,38.483,17.367Zm-46.311,0a23.173,23.173,0,0,1,5.92-15.459c1.053,1.184,2.895,3.158,5.986,6.315,2.631,2.7,6.249,6.447,10.854,11.117,5.92,6.052,12.564,12.762,15.393,15.656a23.2,23.2,0,0,1-38.154-17.63Z" transform="translate(-1454.8 -502.7)" fill="#df040b" stroke="#e87175" stroke-width="5"/>
      </g>
    </g>
    <g id="Group_144" data-name="Group 144" transform="translate(124 -159)">
      <g id="Group_54" data-name="Group 54" transform="translate(480.572 891.356)">
        <path id="Path_130" data-name="Path 130" d="M1801.884,353.748h0a5.242,5.242,0,0,1,.987-3.092h-.987a1.179,1.179,0,0,1-1.184-1.184h0a1.179,1.179,0,0,1,1.184-1.184h23.287a1.179,1.179,0,0,1,1.184,1.184h0a1.179,1.179,0,0,1-1.184,1.184h-.987a5.743,5.743,0,0,1,.987,3.092v45.785h0a1.179,1.179,0,0,1,1.184,1.184h0a1.179,1.179,0,0,1-1.184,1.184h-23.287a1.179,1.179,0,0,1-1.184-1.184h0a1.179,1.179,0,0,1,1.184-1.184Zm7.368-12.893h8.552v-.921a.59.59,0,0,0-.592-.592H1815.9v-3.75a.59.59,0,0,0-.592-.592h-3.421a.59.59,0,0,0-.592.592v3.75h-1.316a.59.59,0,0,0-.592.592v.921Zm3.223-4.6c.329,0,.658.395.658.921s-.263.921-.658.921c-.329,0-.658-.395-.658-.921s.263-.921.658-.921Zm8.552,6.841a7,7,0,0,1,2.565,4.21h-20.064a6.822,6.822,0,0,1,2.566-4.21V342.5a.59.59,0,0,1,.592-.592h13.683a.59.59,0,0,1,.592.592v.592Z" transform="translate(-1800.7 -335)" fill="#717070" fill-rule="evenodd"/>
      </g>
      <path id="Path_51-2" data-name="Path 51" d="M1806.621,354.5a25.721,25.721,0,1,0,25.721,25.721A25.758,25.758,0,0,0,1806.621,354.5Zm23.155,25.787a23.182,23.182,0,0,1-6.184,15.722c-10.657-10.854-27.431-27.892-32.3-33.089a23.164,23.164,0,0,1,38.483,17.367Zm-46.311,0a23.172,23.172,0,0,1,5.92-15.459c1.052,1.184,2.895,3.158,5.986,6.315,2.631,2.7,6.249,6.447,10.854,11.117,5.92,6.052,12.564,12.762,15.393,15.656a23.2,23.2,0,0,1-38.154-17.63Z" transform="translate(-1313.352 549.683)" fill="#df040b" stroke="#e87175" stroke-width="5"/>
    </g>
    <path id="Path_15-2" data-name="Path 15" d="M1587.1,580.976a3.941,3.941,0,0,0-.526,2.5l2.3-4.276A3.56,3.56,0,0,0,1587.1,580.976Z" transform="translate(-754.527 213.797)" fill="#717070"/>
    <text id="CUCHILLOS_O_RASURADORAS" data-name="CUCHILLOS O
RASURADORAS" transform="translate(804 810.05)" fill="#717070" font-size="9" font-family="Source Sans Pro" font-weight="600"><tspan x="0" y="0">CUCHILLOS O</tspan><tspan x="0" y="8">RASURADORAS</tspan></text>
    <g id="Group_59" data-name="Group 59" transform="translate(880 799.626)">
      <text id="HERRAMIENTA" transform="translate(0 9)" fill="#717070" font-size="9" font-family="Source Sans Pro" font-weight="600"><tspan x="0" y="0">HERRAMIENTA</tspan></text>
      <text id="O_PINZAS" data-name="O PINZAS" transform="translate(9.736 17.289)" fill="#717070" font-size="9" font-family="Source Sans Pro" font-weight="600"><tspan x="0" y="0">O PINZAS</tspan></text>
    </g>
    <g id="Group_60" data-name="Group 60" transform="translate(954 801.177)">
      <text id="OBJETOS_" data-name="OBJETOS " transform="translate(18.485 9)" fill="#717070" font-size="9" font-family="Source Sans Pro" font-weight="600"><tspan x="0" y="0">OBJETOS </tspan></text>
      <text id="PUNZOCORTANTES" transform="translate(0 17.289)" fill="#717070" font-size="9" font-family="Source Sans Pro" font-weight="600"><tspan x="0" y="0">PUNZOCORTANTES</tspan></text>
    </g>
    <g id="Group_147" data-name="Group 147" transform="translate(127.336 -159)">
      <path id="Path_12" data-name="Path 12" d="M1608.592,563.791a17.414,17.414,0,0,0-.592,3.552.272.272,0,0,0,.46.2c1.842-1.447,2.434-3.881,3.026-7.039.329-1.776,1.842-7.3,1.842-7.3h-.132l-3.684,6.71C1609.184,561.16,1608.921,562.541,1608.592,563.791Z" transform="translate(-896.551 381.693)" fill="#717070"/>
      <path id="Path_26" data-name="Path 26" d="M1609.484,488a8.055,8.055,0,0,0-1.776,2.237l.46,1.118-1.184.2v.066l.46,1.118-1.184.2V493l.46,1.118-1.184.2v.066l.46,1.118-1.184.2a.064.064,0,0,1-.066.066l.46,1.118-1.184.2a.064.064,0,0,1-.066.066l.46,1.118-1.184.2a.064.064,0,0,1-.066.066l.46,1.118-1.184.2a.064.064,0,0,1-.066.066l.46,1.118-1.184.2-.066.066.46,1.118-1.184.2c0,.066-.066.066-.066.132l.46,1.053-1.118.2c0,.066-.066.066-.066.132l.46,1.053-1.118.2c0,.066-.066.066-.066.132l.46,1.053-1.118.2c0,.066-.066.066-.066.132l.46,1.052-1.118.2c0,.066-.066.066-.066.132l.46,1.052-1.118.2a.23.23,0,0,1-.066.132l.46,1.053-.658.132-4.276-14.867a11.791,11.791,0,0,0-2.171-4.473,17.449,17.449,0,0,0-4.21-2.829c-.592,1.447-1.316,3.223-.921,5,.658,2.7,2.894,10.2,4.736,16.38l-11.183-8.025c-.066-.066-.131-.066-.263-.132l-6.776-4.868c-.987,1.381,1.71,1.908,1.118,2.7-.592.855-2.039-1.513-2.96-.2,0,0,.526.592.789.855h0l.131.132h.132a1.446,1.446,0,0,1,.2.329v.066a1.059,1.059,0,0,0,.263.461.064.064,0,0,1,.066.066.2.2,0,0,0,.263,0h.066a.123.123,0,0,1,.2,0,1.438,1.438,0,0,1,.2.329c0,.066,0,.066.066.132a1.437,1.437,0,0,0,.2.329.064.064,0,0,1,.066.066c.066,0,.131.066.263,0,.066,0,.066,0,.132-.066a.123.123,0,0,1,.2,0,1.443,1.443,0,0,1,.2.329.23.23,0,0,0,.066.132.9.9,0,0,0,.2.263.064.064,0,0,1,.066.066c.066,0,.132.066.2,0,.066,0,.066,0,.132-.066a.123.123,0,0,1,.2,0,1.446,1.446,0,0,1,.2.329c0,.066,0,.132.066.132a.908.908,0,0,0,.2.263.064.064,0,0,1,.066.066c.066,0,.132.066.263,0,.066,0,.066,0,.131-.066a.123.123,0,0,1,.2,0,1.438,1.438,0,0,1,.2.329c0,.066,0,.066.066.132a.906.906,0,0,0,.2.263.064.064,0,0,1,.066.066c.066,0,.131.066.263,0,.066,0,.066,0,.132-.066a.123.123,0,0,1,.2,0,1.441,1.441,0,0,1,.2.329c0,.066,0,.066.066.132a1.438,1.438,0,0,0,.2.329.064.064,0,0,1,.066.066c.066,0,.132.066.263,0,.066,0,.066,0,.131-.066a.123.123,0,0,1,.2,0,1.437,1.437,0,0,1,.2.329c0,.066,0,.066.066.132a1.438,1.438,0,0,0,.2.329.064.064,0,0,1,.066.066c.066,0,.131.066.263,0,.066,0,.066,0,.132-.066a.123.123,0,0,1,.2,0,1.441,1.441,0,0,1,.2.329c0,.066,0,.066.066.132a1.433,1.433,0,0,0,.2.329.064.064,0,0,1,.066.066c.066.066.132.066.263,0,.066,0,.066,0,.131-.066a.123.123,0,0,1,.2,0,1.437,1.437,0,0,1,.2.329c0,.066,0,.066.066.132a1.438,1.438,0,0,0,.2.329.064.064,0,0,1,.066.066c.066.066.131.066.263,0,.066,0,.066,0,.132-.066a.123.123,0,0,1,.2,0,1.441,1.441,0,0,1,.2.329c0,.066,0,.066.066.132a1.429,1.429,0,0,0,.2.329.064.064,0,0,1,.066.066.2.2,0,0,0,.263,0c.066,0,.066,0,.131-.066a.123.123,0,0,1,.2,0,1.437,1.437,0,0,1,.2.329c0,.066,0,.066.066.132a1.438,1.438,0,0,0,.2.329.064.064,0,0,1,.066.066.2.2,0,0,0,.263,0c.066,0,.066,0,.131-.066a.123.123,0,0,1,.2,0,1.441,1.441,0,0,1,.2.329v.066a1.433,1.433,0,0,0,.2.329.064.064,0,0,1,.066.066.2.2,0,0,0,.263,0,.064.064,0,0,0,.066-.066.123.123,0,0,1,.2,0,1.442,1.442,0,0,1,.2.329v.066a1.433,1.433,0,0,0,.2.329.064.064,0,0,1,.066.066.2.2,0,0,0,.263,0,.064.064,0,0,0,.066-.066.123.123,0,0,1,.2,0,1.438,1.438,0,0,1,.2.329v.066l.2.395a.064.064,0,0,1,.066.066.2.2,0,0,0,.263,0h.066a.123.123,0,0,1,.2,0,1.437,1.437,0,0,1,.2.329v.066l.2.395a.064.064,0,0,1,.066.066.294.294,0,0,0,.329,0h.066a.123.123,0,0,1,.2,0,1.441,1.441,0,0,1,.2.329v.066a2.174,2.174,0,0,0,.2.395.064.064,0,0,1,.066.066h0l-6.315,11.052c-2.566-.789-5.92-1.776-8.025-2.434l-3.684-5.592c-2.1-3.026-4.8-2.105-4.8-2.105l4.276,7.039-8.026-2.3c.329.658.329,2.829,3.355,4.013l6.381,2.105,1.381,2.5,4.21,5.723-.131.263h0a5.732,5.732,0,0,0-.724,2.894l-9.407,2.7s-3.487.921-4.078,3.223c1.645,1.579,5.2,1.513,6.776,1.118l8.946-2.566a18.543,18.543,0,0,0-1.974,3.092,2.406,2.406,0,0,0,.066,2.3c.066.132.46.132.526-.066.592-3.158,3.815-2.039,2.763-.066l-1.908,3.486a.316.316,0,0,1-.395.132l-2.237-1.184-.526-.263c-1.381,3.815,1.118,5.789,1.118,5.789l.855.461a7.085,7.085,0,0,0,2.566-2.566l.526-.987,3.487-6.447a1.645,1.645,0,0,1-.46-.263,7.069,7.069,0,0,1-2.3-2.105h0c-.066-.132-.131-.2-.2-.329h0c0-.066-.066-.066-.066-.132h0c-.066-.132-.132-.2-.2-.329h0a.064.064,0,0,0-.066-.066v-.066a.064.064,0,0,0-.066-.066v-.2a100.168,100.168,0,0,0-.131-.132v-.329c0-.066,0-.066-.066-.132h0c0-.066-.066-.132-.066-.2v-.46a.242.242,0,0,0-.066-.2v-2.433c0-.066,0-.066.066-.132v-.526c0-.066,0-.066.066-.132v-.066c0-.066.066-.066.066-.132h0c0-.066,0-.066.066-.132v-.066a.064.064,0,0,1,.066-.066v-.066a.064.064,0,0,1,.066-.066v-.066a.064.064,0,0,1,.066-.066v-.066c0-.066.066-.066.066-.132L1591,514.643a6.594,6.594,0,0,1,3.881-3.158h.131c.066,0,.066,0,.132-.066h2.039a6.026,6.026,0,0,1,2.829.724l8.354-15.064C1609.156,494.447,1610.669,490.7,1609.484,488Zm-30,16.38a2.866,2.866,0,0,1-1.316-1.908l3.684,2.566A3.4,3.4,0,0,1,1579.488,504.38Zm8.946,8.683h0l.066.066a2.189,2.189,0,0,0,.2.395.064.064,0,0,1,.066.066c.066,0,.131.066.2,0l-6.052,11.051c-.2-.066-.46-.132-.724-.2Zm-6.183,12.7-3.815,6.973-.46-.658,3.552-6.513C1581.79,525.628,1582.053,525.693,1582.25,525.759Zm-9.736-1.908a.885.885,0,1,1,.066-1.25A.858.858,0,0,1,1572.515,523.851Zm5.394,28.418a4.628,4.628,0,0,1,2.3-4.342Zm-1.184-15.656a1.178,1.178,0,0,1-.263-.526l-.395.132a9.337,9.337,0,0,1,.921-2.368l.46.658A9.9,9.9,0,0,0,1576.725,536.613Zm-2.566-9.473a3.383,3.383,0,0,1-.263-2.5,3.506,3.506,0,0,1,2.368-.395s2.3.592,4.539,1.118l-3.355,6.052Zm16.182-13.025-11.38,20.59-.987.263c.066-.2.2-.395.263-.592l.592-1.118,4.078-7.368.592-1.118,5.986-10.854.132-.2a5.844,5.844,0,0,1,1.052-1.447c.066.263.2.592.263.855A7.826,7.826,0,0,1,1590.342,514.116Zm.789-17.169a3.165,3.165,0,0,1,.131-2.3l1.25,4.276A3.644,3.644,0,0,1,1591.131,496.946Zm14.406,2.7a3.162,3.162,0,0,1,.395-2.368,2.807,2.807,0,0,1,1.776-1.513Z" transform="translate(-880.537 404.003)" fill="#717070"/>
      <path id="Path_28-2" data-name="Path 28" d="M1610.307,526.891a2.686,2.686,0,0,1-.066-1.25,5.96,5.96,0,0,0-1.052-.724h0a5.931,5.931,0,0,0-8.025,2.3l-11.446,20.721a5.931,5.931,0,0,0,2.3,8.025h0a5.931,5.931,0,0,0,8.025-2.3l11.446-20.721a5.753,5.753,0,0,0,.592-4.144A2.871,2.871,0,0,1,1610.307,526.891Zm-3.223,5a1.5,1.5,0,1,1-.592-2.039A1.508,1.508,0,0,1,1607.084,531.89Z" transform="translate(-890.043 391.622)" fill="#717070"/>
      <g id="Group_67" data-name="Group 67" transform="translate(680.86 901.739)">
        <path id="Path_156" data-name="Path 156" d="M1587.221,502.8a25.721,25.721,0,1,0,25.721,25.721A25.758,25.758,0,0,0,1587.221,502.8Zm23.156,25.787a23.182,23.182,0,0,1-6.184,15.722c-10.657-10.854-27.431-27.892-32.3-33.089a23.164,23.164,0,0,1,38.483,17.367Zm-46.311,0a23.172,23.172,0,0,1,5.921-15.459c1.052,1.184,2.894,3.158,5.986,6.315,2.631,2.7,6.249,6.447,10.854,11.117,5.92,6.052,12.564,12.762,15.393,15.656a23.2,23.2,0,0,1-38.154-17.63Z" transform="translate(-1561.5 -502.8)" fill="#df040b" stroke="#e87175" stroke-width="5"/>
      </g>
    </g>
    <g id="Group_148" data-name="Group 148" transform="translate(125.535 -159)">
      <path id="Path_37-2" data-name="Path 37" d="M1737.5,533.812a1.234,1.234,0,0,0-.987.132,1.082,1.082,0,0,0-.132.658c0,.526,0,.526-.592.658a1.307,1.307,0,0,0-1.052.789,2.218,2.218,0,0,0-.329,1.118,2.159,2.159,0,0,0,1.447,2.3c.526.2.526.132.526.658a67.462,67.462,0,0,1-.066,8.157.4.4,0,0,1-.066.263.174.174,0,0,1-.2.2h-.658a.463.463,0,0,1-.658-.263c-.132-.263-.329-.461-.46-.724a.064.064,0,0,0-.066-.066,12.24,12.24,0,0,1-.724-1.25,1.433,1.433,0,0,0-.329-.526c-.2-.395-.395-.789-.592-1.118-.263-.526-.592-1.118-.855-1.645a7.841,7.841,0,0,1-.526-1.052l-.2-.592c-.066-.789-.2-1.579-.2-2.368a7.162,7.162,0,0,1,.066-1.184,4.289,4.289,0,0,0,0-.921v-1.645a3.858,3.858,0,0,1,.066-1.513c0-.132-.066-.2-.2-.263a.593.593,0,0,1-.395-.395.4.4,0,0,1-.066-.263,8.03,8.03,0,0,1,0-1.776,1.959,1.959,0,0,0-.066-.855h-.263a.512.512,0,0,1-.526-.132l-.2-.2a2.3,2.3,0,0,1-.329-.526c-.2-.526-.526-1.053-.724-1.579a.575.575,0,0,1,.2-.855,5.492,5.492,0,0,1,.79-.526c.066-.066.131-.066.2-.132-.263-.724-.789-1.447-1.118-2.171a16.98,16.98,0,0,1-.921-2.566,35.512,35.512,0,0,1-1.052-5.263,116.137,116.137,0,0,1-.789-13.551,11.168,11.168,0,0,0-.066-1.513v-.263a17.265,17.265,0,0,0,.066-1.842,3.842,3.842,0,0,1,.132-.855c0-.066.066-.132.132-.2a1.805,1.805,0,0,1,1.842-.592c.132,0,.263.066.395.066a2.123,2.123,0,0,1,1.184.395c.2.132.395.2.592.329a2.463,2.463,0,0,1,.855.789,4.612,4.612,0,0,1,.789,1.842l.2,1.184v.921a86.2,86.2,0,0,0,.329,9.21c.132,1.579.395,3.092.658,4.671a19.926,19.926,0,0,0,1.25,4.407,11.412,11.412,0,0,0,.658,1.25,7.19,7.19,0,0,0,.855,1.118,2.5,2.5,0,0,0,.855.592.2.2,0,0,0,.263,0,1.252,1.252,0,0,0,.658-.329,10.728,10.728,0,0,0,1.118-1.316c.2-.329.395-.592.592-.921,2.1-3.881,2.039-8.289,2.1-12.564,0-2.237.066-4.473.132-6.71,0-.329.066-.658.066-1.052a2.31,2.31,0,0,1,.855-1.974,4.928,4.928,0,0,1,1.316-.987c.132-.066.329-.132.46-.2.395-.132.855-.263,1.25-.395a1.283,1.283,0,0,1,.855.066c.066.066.2.066.263.132a1.452,1.452,0,0,1,.724.921c.066.2.066.395.132.658a32.4,32.4,0,0,1,.132,6.184c0,2.105-.066,4.276-.132,6.381-.066,1.579-.066,3.158-.263,4.671a31.742,31.742,0,0,1-2.368,8.091,7.173,7.173,0,0,1-.395.724c-.329.526-.2.592.132.855.2.132.46.329.658.46l.131.132c.395.329.395.526.263,1.052a6.272,6.272,0,0,1-1.25,1.974l-.395.395c-.132,0-.263-.066-.395-.066,0,.066-.066.066-.066.132v1.053a4.968,4.968,0,0,0,.066.987.362.362,0,0,1-.132.329c-.066.066-.132.132-.2.132-.131.066-.131.2-.131.329v.329a3.757,3.757,0,0,0,.066.855,7.234,7.234,0,0,0,.132,1.184,12,12,0,0,1,.066,2.171V539.6c0,.526-.066,1.053-.066,1.513a3.463,3.463,0,0,1-.2.789c-.2.46-.329.855-.526,1.316a1.434,1.434,0,0,1-.329.526c-.395.526-.658,1.118-.987,1.645s-.658,1.118-.987,1.71a15.755,15.755,0,0,1-.855,1.381.785.785,0,0,1-.592.329h-.395c-.131,0-.2-.066-.2-.263v-.395a51.031,51.031,0,0,1-.2-7.762v-.46a.362.362,0,0,1,.2-.329,2.674,2.674,0,0,0,.592-.329,2.123,2.123,0,0,0,1.052-1.447,2.228,2.228,0,0,0-.2-1.579,1.742,1.742,0,0,0-1.25-.987h-.132c-.132-.066-.263-.132-.263-.329V534.4A1.631,1.631,0,0,0,1737.5,533.812Zm-1.908-3.486a1.295,1.295,0,0,0,1.447,1.184,1.967,1.967,0,0,0,.658-.263,1.062,1.062,0,0,0,.526-1.118l-.2-.592a.7.7,0,0,0-.395-.46,2.338,2.338,0,0,0-.658-.132.834.834,0,0,0-.395.066A1.323,1.323,0,0,0,1735.6,530.326Z" transform="translate(-936.722 400.752)" fill="#717070"/>
      <path id="Path_38-2" data-name="Path 38" d="M1698.657,493.085c.395-.987.658-.263.592.2-.921,7.828-2.039,14.472-4.079,19.6h-.066c.395,1.513.724,3.289,1.184,4.473l.526-.592c1.71,1.118,3.026,1.184,4.013.132.855.066,1.908.921.921,1.842-2.96,2.631,2.1,6.841,5.592,13.354a21.549,21.549,0,0,1,2.763,13.551c.066,1.579-1.184,2.434-3.75,2.7.592-16.314-8.42-18.353-11.841-28.944l.066-.066-.79-2.829c-.395-.066-2.237.789-3.618-.724l-.132.066-.987,3.552.066.066c-3.421,10.591-12.433,12.63-11.841,28.944-2.566-.2-3.815-1.118-3.75-2.7a21.845,21.845,0,0,1,2.763-13.617c3.552-6.513,8.552-10.723,5.592-13.354-.987-.987.066-1.776.921-1.842.987,1.052,2.368,1.052,4.013-.132l.724.855,1.381-4.342c-.066-.2-.066-.395-.131-.526-2.039-6.841-2.237-13.222-2.631-19.735-.066-.789.526-1.118.724-.066l3.881,16.643,2.171.2Z" transform="translate(-918.925 402.536)" fill="#717070" fill-rule="evenodd"/>
      <path id="Path_50-2" data-name="Path 50" d="M1704.621,500.7a25.721,25.721,0,1,0,25.721,25.721A25.758,25.758,0,0,0,1704.621,500.7Zm23.221,25.721a23.182,23.182,0,0,1-6.184,15.722c-10.657-10.854-27.431-27.892-32.3-33.089a23.164,23.164,0,0,1,38.483,17.367Zm-46.377,0a23.172,23.172,0,0,1,5.92-15.459c1.052,1.184,2.895,3.158,5.986,6.315,2.631,2.7,6.249,6.447,10.854,11.117,5.92,6.052,12.564,12.762,15.393,15.656a23.2,23.2,0,0,1-38.154-17.63Z" transform="translate(-920.811 399.657)" fill="#df040b" stroke="#e87175" stroke-width="5"/>
    </g>
    <g id="Group_149" data-name="Group 149" transform="translate(128.051 -159)">
      <path id="Path_35" data-name="Path 35" d="M1812.48,497.228c-.2-4.473-.79-7.039-.2-10.328h2.368c.592,3.289,0,5.92-.2,10.328l.131,20.985c.987.132,1.579.395,1.842.855,1.776.066,1.71,1.908.329,1.974-1.513,5.723.789,11.907,1.316,17.63a10.141,10.141,0,0,1,.395,5.131c-.987,4.539-2.1,7.5-5,7.762h-.263c-2.894-.263-3.815-3.223-4.8-7.762a9.466,9.466,0,0,1,.395-5.131c.526-5.723,2.829-11.907,1.316-17.63-1.381-.066-1.447-1.908.329-1.974.2-.46.79-.724,1.842-.855Z" transform="translate(-952.296 405.037)" fill="#717070" fill-rule="evenodd"/>
      <path id="Path_36-2" data-name="Path 36" d="M1832.461,550.111c0,.263-.2.395-.46.46a.559.559,0,0,1-.46-.46l-.526-2.96-.132-28.681c-.987-.132-1.579-.395-1.842-.855-1.776-.066-1.71-1.908-.329-1.973,1.513-5.723-.79-11.907-1.316-17.63a9.465,9.465,0,0,1-.395-5.131c.987-4.539,2.1-7.5,5-7.762h.263c2.895.263,3.815-3.355,4.8,1.184a9.463,9.463,0,0,1-.395,5.131c-.526,5.723-2.829,18.485-1.315,24.208,1.381.066,1.447,1.908-.329,1.973-.2.461-.789.724-1.776.855l-.131,28.681Z" transform="translate(-958.661 406.03)" fill="#717070" fill-rule="evenodd"/>
      <path id="Path_52-2" data-name="Path 52" d="M1806.621,500.7a25.721,25.721,0,1,0,25.721,25.721A25.758,25.758,0,0,0,1806.621,500.7Zm23.155,25.721a23.182,23.182,0,0,1-6.184,15.722c-10.657-10.854-27.431-27.892-32.3-33.089a23.164,23.164,0,0,1,38.483,17.367Zm-46.311,0a23.172,23.172,0,0,1,5.92-15.459c1.052,1.184,2.895,3.158,5.986,6.315,2.631,2.7,6.249,6.447,10.854,11.117,5.92,6.052,12.564,12.762,15.393,15.656a23.2,23.2,0,0,1-38.154-17.63Z" transform="translate(-942.951 400.315)" fill="#df040b" stroke="#e87175" stroke-width="5"/>
    </g>
    <g id="Group_150" data-name="Group 150" transform="translate(116.1 -159)">
      <g id="Group_69" data-name="Group 69" transform="translate(918.9 891.372)">
        <path id="Path_259" data-name="Path 259" d="M4.256,66.834a5.022,5.022,0,0,0,1.71-.132,7.834,7.834,0,0,0,2.105-.658,9.3,9.3,0,0,0,2.237-1.25,18.643,18.643,0,0,0,1.645-1.579,7.5,7.5,0,0,1,.724-.724A1.583,1.583,0,0,1,13.2,62.1a7.011,7.011,0,0,1,2.039-.395,11.515,11.515,0,0,0,2.105-.263,5.888,5.888,0,0,0,2.105-1.118,6.574,6.574,0,0,0,1.513-1.776c.2-.329.263-.658.46-.921.2-.329.395-.658.592-1.053a2.906,2.906,0,0,0,.395-1.053,1.137,1.137,0,0,0-.066-.658c-.2-.658-.526-1.25-.789-1.908a7.986,7.986,0,0,1-.658-2.368,3.17,3.17,0,0,1,0-.789c.066-.2.132-.46.2-.658.2-.592.395-1.184.658-1.776a8.427,8.427,0,0,1,.724-1.316,36.726,36.726,0,0,1,2.105-3.421,34.833,34.833,0,0,1,2.237-2.96,8,8,0,0,1,1.118-.987,7.114,7.114,0,0,1,1.184-.724h0l.066-.066c.066,0,.132-.066.2-.066a.715.715,0,0,1,.329-.066c.066,0,.132-.2.132-.263a3.709,3.709,0,0,0,.263-.789c0,.066-.066.2-.066.263a23914.484,23914.484,0,0,0-.132.395.5.5,0,0,1-.066.263,3208.485,3208.485,0,0,1-.132.132h0l-.066.066c-.132.066-.2.2-.329.263h0a18.943,18.943,0,0,1,3.026,1.579,7.145,7.145,0,0,1,1.447,1.71c.724.921,1.381,1.908,2.039,2.894.526.789,1.053,1.579,1.513,2.434a2.758,2.758,0,0,1,.329,1.447,12.219,12.219,0,0,1-.395,2.237,8.4,8.4,0,0,0-.066,2.566,6.674,6.674,0,0,1,.132,1.645,1.318,1.318,0,0,1-.789.658.886.886,0,0,0-.592.329,1.341,1.341,0,0,0,.132,1.316.8.8,0,0,0,.658.2A4,4,0,0,1,38,57.032a4.388,4.388,0,0,1,1.645.855,10.159,10.159,0,0,0,2.237,1.118,8.941,8.941,0,0,0,2.3.46,6.261,6.261,0,0,0,1.908-.066,2.175,2.175,0,0,0,1.25-.921,7.918,7.918,0,0,0,.987-1.973,8.393,8.393,0,0,0,.395-2.171,7.117,7.117,0,0,0-1.776-4.8,6.714,6.714,0,0,0-3.552-2.3c-1.184-.329-2.434-.46-3.552-.855a2.21,2.21,0,0,1-.987-.592c-.2-.263-.395-.46-.592-.724-1.25-1.71-2.434-3.486-3.552-5.263-.329-.526-.658-.987-.987-1.513a3.709,3.709,0,0,1-.263-.789c-.132-.395-.2-.789-.329-1.25-.066-.329-.2-.724-.263-1.053-.329-1.316-.724-2.631-1.118-3.881L30.5,34.535l.987-3.947h0c.263-1.184.592-2.3.855-3.486.329-1.25.592-2.434.855-3.684l1.184-5.526c.395-1.776.789-3.486,1.118-5.263.2-.921.395-1.842.592-2.7.46-2.105.855-4.276,1.316-6.381a5.571,5.571,0,0,1,.263-1.118A3.947,3.947,0,0,0,37.8.92c0-.132-.132-.526-.263-.329s-.2.46-.329.658c-.132.329-.329.658-.46,1.053-.526,1.316-.987,2.631-1.447,3.947-.724,2.039-1.447,4.013-2.237,6.052-.658,1.842-1.316,3.684-2.039,5.526-.263.789-.592,1.645-.855,2.434-.329.921-.658,1.776-1.053,2.7v-.066l-1.316,3.684,1.053-4.342a2.749,2.749,0,0,0-.263-.658c-.592-1.645-1.184-3.355-1.776-5C26.03,14.471,21.556,1.643,21.228.722,21.162.525,20.964.13,20.7.2s-.2.855-.2,1.447c.066.789.789,5.46,2.434,12.7.724,3.355,1.513,6.71,2.237,10.065.2.987.46,2.039.724,3.026.263.921.46,1.842.724,2.7-.066.395-.2.789-.263,1.184-.658,2.7-1.447,5.394-2.368,8.025a12.243,12.243,0,0,1-.658,1.645c-.2.46-.46.921-.658,1.381-.592,1.118-1.184,2.237-1.842,3.355a16.934,16.934,0,0,1-1.908,2.894,4.538,4.538,0,0,1-1.842,1.316c-.658.2-1.381.263-2.039.46a6.635,6.635,0,0,0-2.5,1.118,6,6,0,0,0-1.118,1.118,6.485,6.485,0,0,0-1.513,3.881,3.077,3.077,0,0,0,.132,1.118,6.949,6.949,0,0,0,.395,1.25,7.27,7.27,0,0,1,.592,2.039,3.2,3.2,0,0,1-.987,2.237,6.232,6.232,0,0,1-3.092,2.105,8.172,8.172,0,0,1-2.171.263c-.526,0-1.25.066-1.184.789A.809.809,0,0,0,4.256,66.834ZM42.738,47.362c.46.132.855.263,1.25.395a4.019,4.019,0,0,1,.921.46,6.7,6.7,0,0,1,2.171,1.908,6.926,6.926,0,0,1,1.25,2.631,9.814,9.814,0,0,1,.132,1.381c0,.329-.066.658-.066.987,0-.263.066-.526.066-.724,0-.395-.066-.724-.066-1.118a6.44,6.44,0,0,0-1.053-2.7A7.306,7.306,0,0,0,43.33,47.56a9.314,9.314,0,0,0-1.316-.263,4.979,4.979,0,0,0-.987-.066A5.145,5.145,0,0,1,42.738,47.362ZM38.66,51.77A3.834,3.834,0,0,1,40.9,48.744a4.583,4.583,0,0,1,3.815.46,5.938,5.938,0,0,1,2.7,3.486,4.508,4.508,0,0,1-.789,3.947A3.973,3.973,0,0,1,43,57.887a5.445,5.445,0,0,1-3.486-2.368A5.782,5.782,0,0,1,38.66,51.77Zm-.263-.658a3.788,3.788,0,0,0-.132,1.71,6.75,6.75,0,0,0,1.381,3.486,5.019,5.019,0,0,0,1.842,1.447,6.3,6.3,0,0,0,2.434.592,8.321,8.321,0,0,1-1.842-.2,5.528,5.528,0,0,1-3.092-2.5,5.831,5.831,0,0,1-.724-2.039A4.047,4.047,0,0,1,38.4,51.112ZM30.7,20.786c.329-1.053.789-2.237,1.184-3.552.46-1.316.921-2.7,1.381-4.079s.987-2.763,1.447-4.079.921-2.5,1.25-3.552c.789-2.171,1.25-3.552,1.25-3.552s-.46,1.381-1.118,3.486C35.765,6.511,35.3,7.7,34.91,9.011c-.46,1.316-.921,2.7-1.381,4.079s-.987,2.763-1.447,4.079-.921,2.5-1.25,3.552c-.724,2.105-1.25,3.486-1.25,3.486S29.977,22.825,30.7,20.786Zm-1.973,6.841a1.633,1.633,0,0,1,1.71.329,2.182,2.182,0,0,1,.658,1.645,2,2,0,0,1-.526,1.053,2.162,2.162,0,0,1-1.053.46,1.926,1.926,0,0,0,1.316-1.25v-.132L28.6,29.667l2.237-.329a1.745,1.745,0,0,0-.724-1.184,1.447,1.447,0,0,0-.855-.263,1.5,1.5,0,0,0-.724.2,1.911,1.911,0,0,0-.724.724,1.821,1.821,0,0,0-.2.855c0-.132-.066-.2-.066-.329h0A1.806,1.806,0,0,1,28.727,27.628Zm-3.881-15.2c-1.118-3.355-2.566-7.96-3.684-11.315,1.118,3.223,2.566,7.7,3.684,10.92,1.118,3.355,2.237,6.71,3.289,10.131C27.016,18.944,25.9,15.655,24.846,12.432Zm-4.473,37.5a8.667,8.667,0,0,0,.921,3.618,3.638,3.638,0,0,1,.592,1.973,5.334,5.334,0,0,1-.658,1.381,3.567,3.567,0,0,0,.592-1.579A4.9,4.9,0,0,0,21.1,53.48,8.185,8.185,0,0,1,20.372,49.928ZM16.1,51.243a3.9,3.9,0,0,1,3.552,1.842,4.485,4.485,0,0,1,.329,4.079,5.348,5.348,0,0,1-3.158,3.158,4.241,4.241,0,0,1-3.947-.592h0c-.855-.724-.46-.395,0,0a3.806,3.806,0,0,1-1.316-2.039A5.215,5.215,0,0,1,16.1,51.243Zm-5.065,6.118A4.814,4.814,0,0,1,11.1,55.19a5.413,5.413,0,0,1,.789-1.645,12.244,12.244,0,0,0-.658,1.645,4.844,4.844,0,0,0-.066,2.171,4.537,4.537,0,0,0,2.171,3.158.064.064,0,0,1,.066.066.064.064,0,0,1-.066-.066c-.066-.066-.2-.066-.263-.132-.132-.066-.263-.2-.395-.263a3.77,3.77,0,0,1-.724-.724A4.782,4.782,0,0,1,11.031,57.361Z" transform="translate(-2.874 -0.189)" fill="#717070"/>
        <g id="Group_135" data-name="Group 135" transform="translate(0 10.006)">
          <path id="Path_260" data-name="Path 260" d="M28.221,15.4A25.721,25.721,0,1,0,53.942,41.121,25.8,25.8,0,0,0,28.221,15.4ZM51.376,41.121a23.182,23.182,0,0,1-6.184,15.722C34.536,45.989,17.827,29.017,12.959,23.82a23.116,23.116,0,0,1,38.417,17.3Zm-46.311,0a23.172,23.172,0,0,1,5.92-15.459c1.053,1.184,2.894,3.158,5.986,6.315,2.631,2.7,6.249,6.447,10.854,11.117,5.92,6.052,12.564,12.762,15.393,15.656A23.2,23.2,0,0,1,5.066,41.121Z" transform="translate(-2.5 -15.4)" fill="#df040b" stroke="#e87175" stroke-width="5"/>
        </g>
        <text id="TIJERAS" transform="translate(10.58 79.928)" fill="#717070" font-size="9" font-family="Source Sans Pro" font-weight="600"><tspan x="0" y="0">TIJERAS</tspan></text>
      </g>
    </g>
  </g>
</svg>
